<svg width="42" height="42" viewBox="0 0 42 42" fill="none" xmlns="http://www.w3.org/2000/svg">
<path fill-rule="evenodd" clip-rule="evenodd" d="M38.5 20.9985C38.5 18.0541 36.5218 15.7485 33.25 15.7485H27.8722C27.8879 15.7055 27.9041 15.6613 27.9209 15.6159C27.9695 15.4844 28.1066 15.1233 28.2396 14.7725L28.2397 14.7723L28.2406 14.7701C28.3581 14.4603 28.4724 14.159 28.5199 14.0315C28.8527 13.1384 29.0955 12.4188 29.2919 11.7062C29.5889 10.6291 29.75 9.65866 29.75 8.74846C29.75 6.17245 28.1608 4.57247 25.8095 3.88781C24.749 3.57901 23.8259 3.4983 22.75 3.49846H21.9109L21.3855 4.15276C20.792 4.89185 19.6263 6.22385 18.2824 7.75953L18.2823 7.75972L18.2823 7.75973C15.803 10.5928 12.7171 14.119 11.4982 15.8944C11.1818 15.8004 10.8468 15.75 10.5 15.75H7C5.067 15.75 3.5 17.317 3.5 19.25V35C3.5 36.933 5.067 38.5 7 38.5H10.5C11.7025 38.5 12.7633 37.8936 13.3934 36.9699C13.9243 37.3133 14.5166 37.5999 15.1605 37.8303C16.6345 38.3577 18.0965 38.5196 19.3102 38.4974L31.5 38.4985C36.3215 38.4985 38.5 31.3997 38.5 20.9985ZM16.3395 34.5349C14.7909 33.9808 14 33.0774 14 31.4985V19.25V19.2485C14 18.8281 14.0778 18.4559 14.248 18.0584C14.5538 17.3445 17.3283 14.179 19.9581 11.1787L19.9582 11.1787L19.9582 11.1786L19.9584 11.1784C21.3156 9.63001 22.6342 8.12563 23.5549 7.02494C23.9949 7.05794 24.4097 7.12556 24.831 7.24825C25.8338 7.54026 26.25 7.95926 26.25 8.74846C26.25 9.30248 26.1379 9.97751 25.9178 10.776C25.7533 11.3727 25.5402 12.0041 25.2401 12.8096C25.1978 12.9232 25.0927 13.2003 24.9805 13.4959L24.9788 13.5004L24.9783 13.5017L24.9777 13.5032C24.8402 13.8658 24.6928 14.2544 24.6382 14.4019C24.4106 15.0173 24.2607 15.4703 24.1581 15.882C23.7222 17.6321 24.1595 19.2485 26.25 19.2485H33.25C34.4596 19.2485 35 19.8783 35 20.9985C35 29.3823 33.2765 34.9985 31.5 34.9985H19.25L19.1854 34.9995C18.4194 35.0133 17.3436 34.8941 16.3395 34.5349ZM6.99998 35V19.25H10.5V35H6.99998Z" fill="#434343"/>
</svg>
