<svg width="40" height="40" viewBox="0 0 40 40" fill="none" xmlns="http://www.w3.org/2000/svg">
<path fill-rule="evenodd" clip-rule="evenodd" d="M26.8952 25.9298C26.7684 25.5956 26.6379 25.2516 26.5915 25.1263C26.5756 25.0831 26.5601 25.041 26.5452 25.0001H31.6669C34.7829 25.0001 36.6669 22.8042 36.6669 20.0001C36.6669 10.0941 34.5921 3.33342 30.0002 3.33342C30.0002 3.33342 18.3721 3.33379 18.3318 3.33294C17.235 3.31327 15.8426 3.4675 14.4388 3.96978C13.8253 4.18927 13.2609 4.46237 12.7551 4.78959C12.1549 3.91045 11.1449 3.33336 10.0002 3.33336H6.66683C4.82588 3.33336 3.3335 4.82574 3.3335 6.66669V21.6667C3.3335 23.5076 4.82588 25 6.66683 25H10.0002C10.3308 25 10.6501 24.9519 10.9516 24.8623C12.1131 26.5535 15.0512 29.9108 17.4119 32.6084L17.4119 32.6084C18.6919 34.071 19.8021 35.3397 20.3673 36.0436L20.8677 36.6668H21.6797C22.6916 36.6669 23.5707 36.59 24.5807 36.2959C26.82 35.6439 28.3336 34.1201 28.3336 31.6668C28.3336 30.7999 28.1801 29.8757 27.8973 28.8499C27.7102 28.1712 27.4789 27.4858 27.162 26.6352C27.1167 26.5136 27.0074 26.2256 26.8952 25.9298ZM13.3335 21.6667V10.0001C13.3335 8.4964 14.0868 7.636 15.5616 7.10832C16.5179 6.76618 17.5425 6.65269 18.2762 6.6658C24.1206 6.6665 25.8386 6.6667 27.5566 6.66676L30.0002 6.66679C31.692 6.66679 33.3335 12.0155 33.3335 20.0001C33.3335 21.067 32.8189 21.6668 31.6668 21.6668H25.0002C23.0093 21.6668 22.5927 23.2062 23.0079 24.8729C23.1056 25.265 23.2484 25.6965 23.4651 26.2825C23.5171 26.4233 23.6578 26.7941 23.789 27.1397L23.7892 27.1405C23.8968 27.4238 23.9978 27.6902 24.0384 27.799C24.3242 28.5662 24.5271 29.1675 24.6837 29.7358C24.8934 30.4963 25.0002 31.1392 25.0002 31.6668C25.0002 32.4184 24.6038 32.8175 23.6487 33.0956C23.2474 33.2124 22.8525 33.2768 22.4334 33.3082C21.5565 32.2599 20.3006 30.8271 19.008 29.3524L19.0079 29.3523C16.5034 26.4949 13.8609 23.4801 13.5697 22.8001C13.4075 22.4216 13.3335 22.0671 13.3335 21.6668V21.6667ZM6.66677 21.6667V6.6667H10.0001V21.6667H6.66677Z" fill="#434343"/>
</svg>
