<?xml version="1.0" standalone="no"?>
<!DOCTYPE svg PUBLIC "-//W3C//DTD SVG 1.1//EN" "http://www.w3.org/Graphics/SVG/1.1/DTD/svg11.dtd" >
<svg xmlns="http://www.w3.org/2000/svg" xmlns:xlink="http://www.w3.org/1999/xlink" version="1.1">
<metadata>
Created by FontForge 20190801 at Wed Jan 16 13:39:18 2008
 By Jimmy Wärting
The typeface was designed for TypeMarket in 1998 by Natalia Vasilyeva. Based on VAG Rounded of Berthold Fototype, the source is V.A.G.-Rundschrift of H.Berthold AG, 1979 and Helvetica Rounded by Max Miedinger, Linotype, 1957.
</metadata>
<defs>
<font id="SansRounded" horiz-adv-x="500" >
  <font-face 
    font-family="SansRounded"
    font-weight="400"
    font-stretch="normal"
    units-per-em="1000"
    panose-1="2 0 5 3 3 0 0 2 0 4"
    ascent="800"
    descent="-200"
    x-height="532"
    cap-height="711"
    bbox="-71 -300 1158 1015"
    underline-thickness="102"
    underline-position="-110"
    stemh="147"
    stemv="158"
    unicode-range="U+0020-F6DE"
  />
<missing-glyph 
 />
    <glyph glyph-name="afii10017.var.accented" unicode="&#x410;`" horiz-adv-x="637" 
d="M230 284h169l-81 263zM322 723c55 0 97 -33 119 -94l180 -511c7 -20 11 -37 11 -51c0 -46 -35 -76 -80 -76c-42 0 -68 26 -85 79l-20 64h-263l-24 -70c-15 -45 -43 -73 -78 -73c-45 0 -77 33 -77 78c0 16 2 32 8 47l185 502c26 71 64 105 124 105zM364 1015
c35 0 63 -25 63 -60c0 -21 -11 -39 -26 -56l-76 -84c-18 -20 -35 -31 -54 -31c-32 0 -54 21 -54 55c0 16 7 30 17 44l73 100c14 20 33 32 57 32z" />
    <glyph glyph-name="afii10022.var.accented" unicode="&#x415;`" horiz-adv-x="505" 
d="M225 561v-128h114c77 0 115 -24 115 -75s-38 -75 -115 -75h-114v-133h137c77 0 115 -24 115 -75s-38 -75 -115 -75h-189c-86 0 -110 25 -110 102v495c0 79 22 114 112 114h182c77 0 115 -25 115 -76s-38 -74 -115 -74h-132zM298 1015c35 0 63 -25 63 -60
c0 -21 -11 -39 -26 -56l-76 -84c-18 -20 -35 -31 -54 -31c-32 0 -54 21 -54 55c0 16 7 30 17 44l73 100c14 20 33 32 57 32z" />
    <glyph glyph-name="afii10026.var.accented" unicode="&#x418;`" horiz-adv-x="748" 
d="M144 723c55 0 81 -38 81 -115v-336l299 395c26 34 52 56 87 56c52 0 74 -41 74 -112v-505c0 -77 -26 -115 -81 -115s-81 38 -81 115v327l-293 -387c-30 -40 -59 -55 -93 -55c-52 0 -74 30 -74 97v520c0 77 26 115 81 115zM420 1015c35 0 63 -25 63 -60
c0 -21 -11 -39 -26 -56l-76 -84c-18 -20 -35 -31 -54 -31c-32 0 -54 21 -54 55c0 16 7 30 17 44l73 100c14 20 33 32 57 32z" />
    <glyph glyph-name="afii10032.var.accented" unicode="&#x41e;`" horiz-adv-x="758" 
d="M379 732c207 0 349 -150 349 -377c0 -224 -139 -376 -349 -376s-349 151 -349 376c0 226 142 377 349 377zM379 577c-103 0 -173 -83 -173 -224c0 -135 71 -219 173 -219s173 84 173 219c0 141 -70 224 -173 224zM425 1015c35 0 63 -25 63 -60c0 -21 -11 -39 -26 -56
l-76 -84c-18 -20 -35 -31 -54 -31c-32 0 -54 21 -54 55c0 16 7 30 17 44l73 100c14 20 33 32 57 32z" />
    <glyph glyph-name="afii10037.var.accented" unicode="&#x423;`" horiz-adv-x="580" 
d="M101 723c41 0 63 -32 83 -69l130 -234l111 227c22 45 42 76 89 76c33 0 61 -21 61 -71c0 -21 -12 -47 -28 -76l-263 -490c-32 -61 -56 -95 -103 -95c-38 0 -69 27 -69 64c0 21 7 42 22 65l99 159l-182 285c-22 35 -33 68 -33 88c0 48 46 71 83 71zM336 1015
c35 0 63 -25 63 -60c0 -21 -11 -39 -26 -56l-76 -84c-18 -20 -35 -31 -54 -31c-32 0 -54 21 -54 55c0 16 7 30 17 44l73 100c14 20 33 32 57 32z" />
    <glyph glyph-name="afii10045.var.accented" unicode="&#x42b;`" horiz-adv-x="868" 
d="M724 723c55 0 81 -38 81 -115v-502c0 -77 -26 -115 -81 -115s-81 38 -81 115v502c0 77 26 115 81 115zM144 723c53 0 81 -27 81 -115v-152h87c142 0 274 -60 274 -233c0 -118 -94 -223 -253 -223h-160c-84 0 -110 22 -110 102v506c0 77 25 115 81 115zM225 318v-180h81
c70 0 110 30 110 91c0 64 -35 89 -113 89h-78zM480 1015c35 0 63 -25 63 -60c0 -21 -11 -39 -26 -56l-76 -84c-18 -20 -35 -31 -54 -31c-32 0 -54 21 -54 55c0 16 7 30 17 44l73 100c14 20 33 32 57 32z" />
    <glyph glyph-name="afii10047.var.accented" unicode="&#x42d;`" horiz-adv-x="632" 
d="M252 732c204 0 350 -157 350 -377c0 -226 -140 -376 -348 -376c-128 0 -224 47 -224 123c0 39 34 71 73 71c54 0 93 -39 143 -39c91 0 155 60 173 152h-175c-78 0 -114 25 -114 74c0 53 39 76 114 76h172c-11 84 -84 141 -165 141c-92 0 -84 -27 -142 -27
c-37 0 -70 28 -70 67c0 76 123 115 213 115zM362 1015c35 0 63 -25 63 -60c0 -21 -11 -39 -26 -56l-76 -84c-18 -20 -35 -31 -54 -31c-32 0 -54 21 -54 55c0 16 7 30 17 44l73 100c14 20 33 32 57 32z" />
    <glyph glyph-name="afii10048.var.accented" unicode="&#x42e;`" horiz-adv-x="1080" 
d="M225 437h134c30 180 161 295 342 295c207 0 349 -150 349 -377c0 -224 -139 -376 -349 -376c-188 0 -319 121 -344 308h-132v-181c0 -77 -26 -115 -81 -115s-81 38 -81 115v502c0 77 26 115 81 115s81 -38 81 -115v-171zM701 577c-103 0 -173 -83 -173 -224
c0 -135 71 -219 173 -219s173 84 173 219c0 141 -70 224 -173 224zM586 1015c35 0 63 -25 63 -60c0 -21 -11 -39 -26 -56l-76 -84c-18 -20 -35 -31 -54 -31c-32 0 -54 21 -54 55c0 16 7 30 17 44l73 100c14 20 33 32 57 32z" />
    <glyph glyph-name="afii10049.var.accented" unicode="&#x42f;`" horiz-adv-x="621" 
d="M306 711h140c84 0 112 -28 112 -114v-491c0 -79 -27 -115 -81 -115c-56 0 -81 39 -81 115v165l-199 -227c-35 -40 -67 -53 -98 -53c-37 0 -69 32 -69 71c0 24 15 57 52 93l136 130c-120 36 -170 103 -170 214c0 119 79 212 258 212zM396 379v183h-77
c-64 0 -101 -24 -101 -85c0 -62 29 -98 103 -98h75zM356 1015c35 0 63 -25 63 -60c0 -21 -11 -39 -26 -56l-76 -84c-18 -20 -35 -31 -54 -31c-32 0 -54 21 -54 55c0 16 7 30 17 44l73 100c14 20 33 32 57 32z" />
    <glyph glyph-name="afii10065.var.accented" unicode="&#x430;`" horiz-adv-x="603" 
d="M289 402c-57 0 -102 -56 -102 -134c0 -80 44 -137 102 -137s103 59 103 137c0 77 -46 134 -103 134zM396 48c-32 -39 -78 -61 -132 -61c-129 0 -239 114 -239 279c0 160 111 280 245 280c54 0 94 -19 126 -57c18 32 43 50 75 50c54 0 78 -37 78 -114v-317
c0 -77 -25 -115 -78 -115c-35 0 -58 17 -75 55zM367 808c35 0 63 -25 63 -60c0 -21 -11 -39 -26 -56l-76 -84c-18 -20 -35 -31 -54 -31c-32 0 -54 21 -54 55c0 16 7 30 17 44l73 100c14 20 33 32 57 32z" />
    <glyph glyph-name="afii10070.var.accented" unicode="&#x435;`" horiz-adv-x="572" 
d="M187 223c7 -59 51 -98 119 -98c79 0 130 51 166 51c38 0 63 -25 63 -61c0 -62 -100 -128 -237 -128c-155 0 -273 118 -273 279s114 280 265 280s257 -118 257 -259c0 -54 -25 -64 -78 -64h-282zM186 325h208c-4 55 -50 93 -103 93s-94 -35 -105 -93zM352 808
c35 0 63 -25 63 -60c0 -21 -11 -39 -26 -56l-76 -84c-18 -20 -35 -31 -54 -31c-32 0 -54 21 -54 55c0 16 7 30 17 44l73 100c14 20 33 32 57 32z" />
    <glyph glyph-name="afii10074.var.accented" unicode="&#x438;`" horiz-adv-x="583" 
d="M132 539c51 0 79 -35 79 -115v-172l161 241c24 36 51 46 78 46c50 0 79 -35 79 -115v-316c0 -75 -27 -115 -79 -115s-78 35 -78 115v166l-182 -253c-14 -20 -32 -28 -58 -28c-51 0 -78 35 -78 115v316c0 77 24 115 78 115zM357 808c35 0 63 -25 63 -60
c0 -21 -11 -39 -26 -56l-76 -84c-18 -20 -35 -31 -54 -31c-32 0 -54 21 -54 55c0 16 7 30 17 44l73 100c14 20 33 32 57 32z" />
    <glyph glyph-name="afii10080.var.accented" unicode="&#x43e;`" horiz-adv-x="583" 
d="M292 546c156 0 266 -116 266 -280s-110 -279 -266 -279c-155 0 -267 115 -267 279s112 280 267 280zM292 402c-58 0 -105 -53 -105 -135c0 -83 45 -136 105 -136s104 55 104 137c0 80 -46 134 -104 134zM357 808c35 0 63 -25 63 -60c0 -21 -11 -39 -26 -56l-76 -84
c-18 -20 -35 -31 -54 -31c-32 0 -54 21 -54 55c0 16 7 30 17 44l73 100c14 20 33 32 57 32z" />
    <glyph glyph-name="afii10085.var.accented" unicode="&#x443;`" 
d="M82 539c44 0 62 -27 80 -76l89 -238l97 251c17 43 37 63 69 63c48 0 78 -29 78 -75c0 -14 -4 -34 -13 -55l-240 -570c-17 -41 -34 -64 -69 -64c-49 0 -78 30 -78 76c0 17 4 34 13 54l65 141l-159 371c-7 15 -9 31 -9 44c0 44 34 78 77 78zM316 808c35 0 63 -25 63 -60
c0 -21 -11 -39 -26 -56l-76 -84c-18 -20 -35 -31 -54 -31c-32 0 -54 21 -54 55c0 16 7 30 17 44l73 100c14 20 33 32 57 32z" />
    <glyph glyph-name="afii10093.var.accented" unicode="&#x44b;`" horiz-adv-x="796" 
d="M664 539c53 0 78 -37 78 -114v-317c0 -77 -24 -115 -78 -115s-79 38 -79 115v317c0 77 25 114 79 114zM133 539c51 0 78 -35 78 -115v-63h84c179 0 237 -73 237 -170c0 -111 -91 -191 -236 -191h-163c-49 0 -79 33 -79 113v311c0 77 25 115 79 115zM211 249v-123h87
c55 0 77 27 77 64c0 45 -31 59 -77 59h-87zM464 808c35 0 63 -25 63 -60c0 -21 -11 -39 -26 -56l-76 -84c-18 -20 -35 -31 -54 -31c-32 0 -54 21 -54 55c0 16 7 30 17 44l73 100c14 20 33 32 57 32z" />
    <glyph glyph-name="afii10095.var.accented" unicode="&#x44d;`" horiz-adv-x="503" 
d="M207 546c162 0 271 -114 271 -280c0 -152 -108 -279 -262 -279c-106 0 -185 48 -185 105c0 40 19 59 59 59c47 0 58 -29 109 -29s99 37 117 94h-103c-54 0 -89 15 -89 58c0 48 41 68 101 68h91c-20 50 -61 69 -107 69c-66 0 -73 -27 -112 -27s-67 25 -67 63
c0 68 95 99 177 99zM317 808c35 0 63 -25 63 -60c0 -21 -11 -39 -26 -56l-76 -84c-18 -20 -35 -31 -54 -31c-32 0 -54 21 -54 55c0 16 7 30 17 44l73 100c14 20 33 32 57 32z" />
    <glyph glyph-name="afii10096.var.accented" unicode="&#x44e;`" horiz-adv-x="835" 
d="M211 332h73c22 128 129 214 260 214c155 0 266 -114 266 -280c0 -163 -109 -279 -266 -279c-129 0 -238 71 -260 219h-73v-98c0 -75 -25 -115 -79 -115c-51 0 -78 35 -78 115v316c0 77 26 115 83 115s74 -42 74 -115v-92zM544 402c-63 0 -104 -54 -104 -134
c0 -79 39 -137 103 -137c61 0 105 55 105 137c0 84 -43 134 -104 134zM483 808c35 0 63 -25 63 -60c0 -21 -11 -39 -26 -56l-76 -84c-18 -20 -35 -31 -54 -31c-32 0 -54 21 -54 55c0 16 7 30 17 44l73 100c14 20 33 32 57 32z" />
    <glyph glyph-name="afii10097.var.accented" unicode="&#x44f;`" horiz-adv-x="572" 
d="M518 93c0 -65 -27 -100 -80 -100c-54 0 -77 50 -77 100v114h-54l-140 -173c-24 -29 -51 -41 -75 -41c-33 0 -62 30 -62 67c0 31 21 61 50 91l87 88c-75 20 -120 66 -120 153c0 89 75 147 177 147h200c73 0 94 -41 94 -115v-331zM361 305v119h-85c-60 0 -72 -30 -72 -58
c0 -26 12 -61 72 -61h85zM352 808c35 0 63 -25 63 -60c0 -21 -11 -39 -26 -56l-76 -84c-18 -20 -35 -31 -54 -31c-32 0 -54 21 -54 55c0 16 7 30 17 44l73 100c14 20 33 32 57 32z" />
    <glyph glyph-name=".notdef" 
 />
    <glyph glyph-name="space" unicode=" " horiz-adv-x="324" 
 />
    <glyph glyph-name="exclam" unicode="!" horiz-adv-x="290" 
d="M144 157c46 0 86 -40 86 -85c0 -49 -41 -85 -86 -85c-44 0 -84 33 -84 84c0 46 39 86 84 86zM144 731c53 0 77 -37 77 -114v-288c0 -77 -24 -115 -77 -115c-52 0 -78 38 -78 115v288c0 77 26 114 78 114z" />
    <glyph glyph-name="quotedbl" unicode="&#x22;" horiz-adv-x="331" 
d="M39 476v179c0 28 21 47 47 47c31 0 47 -19 47 -47v-179c0 -28 -21 -47 -47 -47c-31 0 -47 19 -47 47zM245 702c31 0 47 -19 47 -47v-179c0 -28 -21 -47 -47 -47c-31 0 -47 19 -47 47v179c0 28 21 47 47 47z" />
    <glyph glyph-name="numbersign" unicode="#" horiz-adv-x="769" 
d="M383 512h118l59 168c16 44 24 51 71 51c25 0 40 -6 40 -29c0 -7 -5 -27 -9 -38l-53 -152h76c39 0 69 -14 69 -49c0 -36 -32 -49 -69 -49h-111l-41 -118h92c39 0 69 -14 69 -49c0 -36 -32 -49 -69 -49h-127l-54 -152c-16 -44 -24 -51 -71 -51c-25 0 -40 6 -40 29
c0 7 5 27 9 38l48 136h-119l-54 -152c-16 -44 -24 -51 -71 -51c-25 0 -40 6 -40 29c0 7 5 27 9 38l47 136h-74c-37 0 -69 13 -69 49c0 35 30 49 69 49h109l42 118h-82c-37 0 -69 13 -69 49c0 35 30 49 69 49h117l59 168c16 44 24 51 71 51c25 0 40 -6 40 -29
c0 -7 -5 -27 -9 -38zM346 414l-43 -118h123l42 118h-122z" />
    <glyph glyph-name="dollar" unicode="$" horiz-adv-x="551" 
d="M230 -19c-133 13 -205 61 -205 114c0 43 30 73 80 73c43 0 102 -37 174 -37c45 0 80 31 80 73c0 57 -48 76 -125 99c-137 41 -201 91 -201 202c0 109 73 201 197 226v45c0 37 12 54 40 54c32 0 40 -17 40 -54v-45c113 -9 175 -52 175 -106c0 -42 -26 -69 -73 -69
c-39 0 -84 25 -127 25c-50 0 -80 -26 -80 -61c0 -51 49 -57 130 -84c132 -44 196 -109 196 -216c0 -122 -88 -224 -221 -239v-63c0 -37 -13 -55 -40 -55c-30 0 -40 17 -40 55v63z" />
    <glyph glyph-name="percent" unicode="%" horiz-adv-x="699" 
d="M163 720c84 0 153 -70 153 -159s-69 -159 -153 -159c-85 0 -153 69 -153 159s69 159 153 159zM163 618c-28 0 -51 -27 -51 -57c0 -29 23 -57 51 -57s51 28 51 57c0 30 -23 57 -51 57zM536 309c84 0 153 -70 153 -159s-69 -159 -153 -159c-85 0 -153 69 -153 159
s69 159 153 159zM536 207c-28 0 -51 -27 -51 -57c0 -29 23 -57 51 -57s51 28 51 57c0 30 -23 57 -51 57zM239 40c-22 -38 -44 -57 -70 -57c-32 0 -57 25 -57 58c0 16 5 33 16 52l330 576c21 36 40 56 70 56c32 0 56 -23 56 -56c0 -18 -5 -33 -16 -53z" />
    <glyph glyph-name="ampersand" unicode="&#x26;" horiz-adv-x="721" 
d="M332 731c126 0 206 -78 206 -174c0 -75 -40 -133 -121 -182l97 -115c50 61 80 96 116 96c33 0 61 -29 61 -67s-31 -75 -90 -130c38 -44 62 -72 62 -106c0 -39 -27 -74 -65 -74c-31 0 -60 21 -105 80c-57 -52 -134 -80 -225 -80c-139 0 -238 95 -238 220
c0 94 54 165 164 219c-45 48 -68 95 -68 146c0 93 81 167 206 167zM410 163l-131 150c-58 -27 -87 -66 -87 -110c0 -53 36 -94 95 -94c40 0 82 18 123 54zM330 471c53 22 79 49 79 86c0 30 -31 61 -70 61c-37 0 -65 -27 -65 -58c0 -27 19 -55 56 -89z" />
    <glyph glyph-name="quotesingle" unicode="'" horiz-adv-x="172" 
d="M86 702c31 0 47 -19 47 -47v-179c0 -28 -21 -47 -47 -47c-31 0 -47 19 -47 47v179c0 28 21 47 47 47z" />
    <glyph glyph-name="parenleft" unicode="(" horiz-adv-x="324" 
d="M202 769c39 0 62 -22 62 -62c0 -50 -73 -171 -73 -382c0 -209 73 -331 73 -382c0 -40 -23 -62 -62 -62c-102 0 -146 324 -146 444c0 147 48 444 146 444z" />
    <glyph glyph-name="parenright" unicode=")" horiz-adv-x="324" 
d="M122 769c98 0 146 -297 146 -444c0 -120 -44 -444 -146 -444c-39 0 -62 22 -62 62c0 51 73 173 73 382c0 211 -73 332 -73 382c0 40 23 62 62 62z" />
    <glyph glyph-name="asterisk" unicode="*" 
d="M211 473c-35 -27 -55 -52 -87 -52c-25 0 -46 24 -46 50c0 34 31 48 95 69c-63 21 -95 34 -95 69c0 26 21 50 46 50c32 0 52 -24 87 -51c-3 28 -10 51 -10 69c0 33 19 54 49 54s50 -21 50 -53c0 -21 -8 -43 -11 -70c36 29 57 51 87 51c25 0 46 -24 46 -50
c0 -37 -34 -49 -95 -69c60 -20 95 -32 95 -69c0 -26 -21 -50 -46 -50c-30 0 -51 23 -87 52c3 -27 11 -50 11 -70c0 -33 -20 -54 -50 -54s-49 21 -49 54c0 19 7 42 10 70z" />
    <glyph glyph-name="plus" unicode="+" horiz-adv-x="830" 
d="M466 371h199c37 0 70 -16 70 -51s-29 -51 -71 -51h-198v-199c0 -37 -16 -70 -51 -70s-51 29 -51 71v198h-198c-37 0 -71 15 -71 51c0 35 32 51 71 51h198v198c0 37 15 71 51 71c35 0 51 -32 51 -71v-198z" />
    <glyph glyph-name="comma" unicode="," horiz-adv-x="252" 
d="M151 162c36 0 66 -26 66 -62c0 -15 -6 -32 -16 -51l-79 -144c-20 -37 -44 -55 -70 -55c-35 0 -66 27 -66 63c0 14 5 31 16 50l79 144c20 37 41 55 70 55z" />
    <glyph glyph-name="hyphen" unicode="-" horiz-adv-x="428" 
d="M113 346h203c50 0 78 -27 78 -69c0 -44 -27 -66 -79 -66h-203c-50 0 -78 24 -78 67s28 68 79 68z" />
    <glyph glyph-name="period" unicode="." horiz-adv-x="252" 
d="M137 175c50 0 91 -42 91 -91c0 -53 -42 -91 -91 -91c-48 0 -91 35 -91 91c0 50 42 91 91 91z" />
    <glyph glyph-name="slash" unicode="/" horiz-adv-x="370" 
d="M350 733c36 0 66 -26 66 -62c0 -15 -6 -31 -15 -49l-310 -587c-20 -38 -42 -58 -70 -58c-36 0 -66 27 -66 63c0 13 4 29 14 48l311 587c20 37 39 58 70 58z" />
    <glyph glyph-name="zero" unicode="0" horiz-adv-x="651" 
d="M325 731c177 0 297 -140 297 -376s-120 -376 -297 -376s-296 140 -296 376s119 376 296 376zM326 581c-76 0 -129 -80 -129 -226s52 -226 129 -226s128 81 128 227s-52 225 -128 225z" />
    <glyph glyph-name="one" unicode="1" horiz-adv-x="360" 
d="M103 711h81c68 0 91 -35 91 -115v-488c0 -77 -25 -115 -81 -115s-81 38 -81 115v453h-16c-71 0 -109 26 -109 75c0 51 38 75 115 75z" />
    <glyph glyph-name="two" unicode="2" horiz-adv-x="525" 
d="M259 731c139 0 228 -92 228 -211c0 -114 -91 -216 -246 -370h149c77 0 115 -24 115 -75s-38 -75 -115 -75h-287c-65 0 -97 24 -97 75c0 40 49 87 129 175c114 126 180 206 180 262c0 41 -27 69 -61 69c-83 0 -71 -156 -156 -156c-47 0 -80 33 -80 83
c0 107 99 223 241 223z" />
    <glyph glyph-name="three" unicode="3" horiz-adv-x="546" 
d="M257 731c124 0 213 -87 213 -194c0 -61 -26 -106 -81 -146c79 -41 120 -100 120 -182c0 -128 -107 -230 -256 -230c-131 0 -247 107 -247 197c0 46 29 77 71 77c82 0 83 -124 178 -124c48 0 86 39 86 91c0 57 -35 73 -103 84c-48 8 -68 26 -68 72c0 43 20 60 68 71
c51 12 75 36 75 73s-23 61 -59 61c-72 0 -84 -88 -160 -88c-35 0 -67 29 -67 68c0 79 104 170 230 170z" />
    <glyph glyph-name="four" unicode="4" horiz-adv-x="630" 
d="M380 731c76 0 129 -55 129 -167v-262h25c57 0 90 -33 90 -74c0 -52 -33 -76 -99 -76h-16v-71c0 -57 -30 -88 -80 -88c-48 0 -70 30 -70 94v65h-256c-66 0 -100 19 -100 64c0 29 15 57 39 95l216 342c36 56 68 78 122 78zM189 302h170v273z" />
    <glyph glyph-name="five" unicode="5" horiz-adv-x="530" 
d="M190 711h197c69 0 104 -26 104 -75c0 -47 -33 -75 -98 -75h-167l-11 -86c25 6 49 9 69 9c121 0 214 -98 214 -236c0 -153 -109 -269 -269 -269c-127 0 -227 69 -227 141c0 42 29 72 67 72c48 0 87 -63 158 -63c55 0 99 50 99 111c0 63 -34 99 -88 99
c-41 0 -81 -25 -119 -25c-41 0 -63 24 -63 70c0 9 2 29 5 56l23 185c9 75 39 86 106 86z" />
    <glyph glyph-name="six" unicode="6" horiz-adv-x="570" 
d="M284 454c20 4 42 6 57 6c110 0 204 -97 204 -229c0 -137 -113 -252 -267 -252c-145 0 -253 106 -253 257c0 101 58 223 169 361c71 88 119 134 160 134s78 -33 78 -73c0 -51 -74 -96 -148 -204zM193 228c0 -55 42 -99 92 -99s92 44 92 99s-42 97 -92 97s-92 -42 -92 -97z
" />
    <glyph glyph-name="seven" unicode="7" horiz-adv-x="480" 
d="M91 711h266c79 0 118 -30 118 -89c0 -13 -5 -36 -16 -60l-235 -507c-24 -51 -51 -76 -85 -76c-48 0 -84 34 -84 79c0 21 9 44 22 71l210 432h-184c-71 0 -109 14 -109 73c0 49 32 77 97 77z" />
    <glyph glyph-name="eight" unicode="8" horiz-adv-x="570" 
d="M122 389c-43 38 -65 86 -65 142c0 113 97 200 228 200s229 -87 229 -200c0 -56 -23 -104 -66 -142c63 -41 95 -102 95 -178c0 -128 -104 -232 -258 -232s-258 104 -258 232c0 76 32 138 95 178zM189 226c0 -57 44 -102 96 -102s96 44 96 102s-43 103 -96 103
c-52 0 -96 -45 -96 -103zM212 516c0 -40 34 -75 73 -75c41 0 74 34 74 75c0 42 -33 76 -74 76c-40 0 -73 -34 -73 -76z" />
    <glyph glyph-name="nine" unicode="9" horiz-adv-x="570" 
d="M286 256c-20 -4 -42 -6 -57 -6c-110 0 -204 97 -204 229c0 137 113 252 267 252c145 0 253 -106 253 -257c0 -101 -58 -223 -169 -361c-71 -88 -119 -134 -160 -134s-78 33 -78 73c0 51 74 96 148 204zM377 482c0 55 -42 99 -92 99s-92 -44 -92 -99s42 -97 92 -97
s92 42 92 97z" />
    <glyph glyph-name="colon" unicode=":" horiz-adv-x="252" 
d="M137 175c50 0 91 -42 91 -91c0 -53 -42 -91 -91 -91c-48 0 -91 35 -91 91c0 50 42 91 91 91zM137 478c50 0 91 -42 91 -91c0 -53 -42 -91 -91 -91c-48 0 -91 35 -91 91c0 50 42 91 91 91z" />
    <glyph glyph-name="semicolon" unicode=";" horiz-adv-x="252" 
d="M137 478c50 0 91 -42 91 -91c0 -53 -42 -91 -91 -91c-48 0 -91 35 -91 91c0 50 42 91 91 91zM151 162c36 0 66 -26 66 -62c0 -15 -6 -32 -16 -51l-79 -144c-20 -37 -44 -55 -70 -55c-35 0 -66 27 -66 63c0 14 5 31 16 50l79 144c20 37 41 55 70 55z" />
    <glyph glyph-name="less" unicode="&#x3c;" horiz-adv-x="787" 
d="M70 297c0 21 12 42 31 50l541 222c16 6 29 10 36 10c19 0 39 -21 39 -47c0 -32 -18 -47 -41 -56l-437 -178l437 -178c23 -9 41 -28 41 -58c0 -32 -24 -44 -39 -44c-7 0 -18 2 -33 8l-544 224c-19 8 -31 22 -31 47z" />
    <glyph glyph-name="equal" unicode="=" horiz-adv-x="810" 
d="M171 468h469c37 0 70 -16 70 -51s-29 -51 -71 -51h-468c-37 0 -71 15 -71 51c0 35 32 51 71 51zM171 254h469c37 0 70 -16 70 -51s-29 -51 -71 -51h-468c-37 0 -71 15 -71 51c0 35 32 51 71 51z" />
    <glyph glyph-name="greater" unicode="&#x3e;" horiz-adv-x="787" 
d="M717 297c0 -25 -12 -39 -31 -47l-544 -224c-15 -6 -24 -8 -33 -8c-15 0 -39 9 -39 41c0 30 17 51 41 61l437 178l-437 178c-22 9 -41 24 -41 56c0 26 20 47 39 47c6 0 17 -2 36 -10l541 -222c19 -8 31 -29 31 -50z" />
    <glyph glyph-name="question" unicode="?" horiz-adv-x="509" 
d="M233 157c46 0 86 -40 86 -85c0 -49 -41 -85 -86 -85c-44 0 -84 33 -84 84c0 46 39 86 84 86zM243 728c143 0 240 -102 240 -223c0 -108 -67 -190 -175 -210c0 -66 -31 -98 -78 -98s-76 28 -76 88v63c0 54 17 62 77 76c61 14 82 46 82 88c0 36 -31 66 -70 66
c-94 0 -103 -102 -173 -102c-37 0 -65 30 -65 73c0 82 98 179 238 179z" />
    <glyph glyph-name="at" unicode="@" horiz-adv-x="1000" 
d="M594 342c-8 53 -38 81 -85 81c-73 0 -138 -91 -138 -206c0 -60 27 -92 77 -92c52 0 103 42 120 111zM570 133c-36 -55 -82 -80 -145 -80c-104 0 -158 58 -158 166c0 158 105 275 236 275c53 0 98 -24 122 -66l8 24c11 33 24 42 53 42c22 0 37 -13 37 -29
c0 -13 -2 -28 -9 -56l-51 -207c-3 -11 -7 -31 -7 -36c0 -22 15 -34 46 -34c100 0 165 143 165 243c0 152 -129 268 -325 268c-241 0 -408 -168 -408 -388c0 -200 146 -329 371 -329c106 0 211 33 295 93c12 9 26 16 44 16c16 0 23 -13 23 -29c0 -14 -15 -35 -27 -44
c-100 -75 -212 -113 -333 -113c-263 0 -463 151 -463 405c0 277 223 469 501 469c231 0 412 -131 412 -350c0 -160 -114 -320 -282 -320c-69 0 -105 27 -105 80z" />
    <glyph glyph-name="A" unicode="A" horiz-adv-x="637" 
d="M230 284h169l-81 263zM322 723c55 0 97 -33 119 -94l180 -511c7 -20 11 -37 11 -51c0 -46 -35 -76 -80 -76c-42 0 -68 26 -85 79l-20 64h-263l-24 -70c-15 -45 -43 -73 -78 -73c-45 0 -77 33 -77 78c0 16 2 32 8 47l185 502c26 71 64 105 124 105z" />
    <glyph glyph-name="B" unicode="B" horiz-adv-x="616" 
d="M175 711h133c146 0 222 -70 222 -177c0 -69 -28 -114 -88 -140c93 -23 144 -87 144 -180c0 -130 -88 -214 -253 -214h-160c-86 0 -110 25 -110 102v495c0 79 22 114 112 114zM225 299v-161h80c73 0 111 30 111 81c0 56 -38 80 -113 80h-78zM225 573v-139h68
c49 0 80 29 80 69c0 43 -32 70 -82 70h-66z" />
    <glyph glyph-name="C" unicode="C" horiz-adv-x="630" 
d="M381 732c126 0 212 -51 212 -108c0 -38 -32 -76 -70 -76c-37 0 -83 29 -142 29c-104 0 -175 -89 -175 -226c0 -133 71 -217 180 -217c68 0 113 39 151 39c33 0 65 -33 65 -71c0 -63 -90 -123 -224 -123c-206 0 -348 147 -348 376c0 228 155 377 351 377z" />
    <glyph glyph-name="D" unicode="D" horiz-adv-x="698" 
d="M175 711h146c200 0 347 -136 347 -348c0 -221 -130 -363 -347 -363h-148c-86 0 -110 25 -110 102v495c0 79 22 114 112 114zM225 561v-411h74c130 0 193 71 193 214c0 131 -65 197 -196 197h-71z" />
    <glyph glyph-name="E" unicode="E" horiz-adv-x="505" 
d="M225 561v-128h114c77 0 115 -24 115 -75s-38 -75 -115 -75h-114v-133h137c77 0 115 -24 115 -75s-38 -75 -115 -75h-189c-86 0 -110 25 -110 102v495c0 79 22 114 112 114h182c77 0 115 -25 115 -76s-38 -74 -115 -74h-132z" />
    <glyph glyph-name="F" unicode="F" horiz-adv-x="490" 
d="M225 561v-128h114c77 0 115 -24 115 -75s-38 -75 -115 -75h-114v-177c0 -77 -26 -115 -81 -115s-81 38 -81 115v491c0 79 22 114 112 114h182c77 0 115 -25 115 -76s-38 -74 -115 -74h-132z" />
    <glyph glyph-name="G" unicode="G" horiz-adv-x="729" 
d="M389 732c158 0 262 -78 262 -148c0 -40 -31 -76 -69 -76c-48 0 -100 69 -198 69c-109 0 -178 -81 -178 -218c0 -140 71 -225 177 -225c85 0 144 57 144 143h-57c-76 0 -114 22 -114 75s38 75 114 75h119c79 0 114 -28 114 -106c0 -198 -130 -342 -333 -342
c-197 0 -340 151 -340 377c0 231 141 376 359 376z" />
    <glyph glyph-name="H" unicode="H" horiz-adv-x="748" 
d="M225 437h298v171c0 77 26 115 81 115s81 -38 81 -115v-502c0 -77 -26 -115 -81 -115s-81 38 -81 115v181h-298v-181c0 -77 -26 -115 -81 -115s-81 38 -81 115v502c0 77 26 115 81 115s81 -38 81 -115v-171z" />
    <glyph glyph-name="I" unicode="I" horiz-adv-x="296" 
d="M148 723c55 0 81 -38 81 -115v-502c0 -77 -26 -115 -81 -115s-81 38 -81 115v502c0 77 26 115 81 115z" />
    <glyph glyph-name="J" unicode="J" horiz-adv-x="458" 
d="M314 723c55 0 81 -38 81 -115v-391c0 -157 -73 -238 -208 -238c-111 0 -185 57 -185 119c0 43 30 73 75 73c40 0 70 -37 103 -37c44 0 53 49 53 135v339c0 77 26 115 81 115z" />
    <glyph glyph-name="K" unicode="K" horiz-adv-x="635" 
d="M144 723c55 0 81 -38 81 -115v-179l210 238c31 35 55 56 84 56c39 0 73 -34 73 -74c0 -26 -14 -52 -41 -80l-179 -187l217 -236c27 -30 41 -58 41 -80c0 -42 -38 -75 -75 -75c-35 0 -57 24 -87 57l-243 268v-210c0 -77 -26 -115 -81 -115s-81 38 -81 115v502
c0 77 26 115 81 115z" />
    <glyph glyph-name="L" unicode="L" horiz-adv-x="477" 
d="M144 723c55 0 81 -38 81 -115v-458h137c77 0 115 -24 115 -75s-38 -75 -115 -75h-189c-86 0 -110 25 -110 102v506c0 77 26 115 81 115z" />
    <glyph glyph-name="M" unicode="M" horiz-adv-x="869" 
d="M221 723c60 0 97 -34 113 -99l108 -425l101 426c15 62 52 98 111 98c71 0 101 -41 114 -120l79 -489c3 -17 4 -30 4 -39c0 -53 -34 -84 -82 -84c-46 0 -73 31 -80 94l-50 425h-1l-110 -438c-11 -44 -29 -81 -90 -81c-53 0 -80 20 -95 81l-104 438h-1l-56 -415
c-10 -71 -35 -104 -85 -104c-46 0 -79 31 -79 84c0 12 2 28 6 49l87 485c13 75 41 114 110 114z" />
    <glyph glyph-name="N" unicode="N" horiz-adv-x="748" 
d="M138 723c34 0 60 -22 86 -56l299 -395v336c0 77 26 115 81 115s81 -38 81 -115v-520c0 -67 -22 -97 -74 -97c-34 0 -75 31 -112 80l-274 362v-327c0 -77 -26 -115 -81 -115s-81 38 -81 115v505c0 71 23 112 75 112z" />
    <glyph glyph-name="O" unicode="O" horiz-adv-x="758" 
d="M379 732c207 0 349 -150 349 -377c0 -224 -139 -376 -349 -376s-349 151 -349 376c0 226 142 377 349 377zM379 577c-103 0 -173 -83 -173 -224c0 -135 71 -219 173 -219s173 84 173 219c0 141 -70 224 -173 224z" />
    <glyph glyph-name="P" unicode="P" horiz-adv-x="612" 
d="M225 562v-187h70c74 0 111 32 111 94c0 64 -36 93 -111 93h-70zM175 711h146c163 0 261 -95 261 -242c0 -149 -91 -241 -248 -241h-109v-122c0 -77 -26 -115 -81 -115s-81 38 -81 115v491c0 79 22 114 112 114z" />
    <glyph glyph-name="Q" unicode="Q" horiz-adv-x="758" 
d="M555 23c-50 -31 -107 -44 -176 -44c-210 0 -349 151 -349 376c0 226 141 377 349 377c206 0 349 -150 349 -376c0 -86 -22 -165 -64 -230l50 -46c22 -20 35 -47 35 -70c0 -38 -32 -70 -69 -70c-22 0 -47 11 -71 33zM433 144c-30 26 -45 46 -45 74c0 38 27 66 62 66
c27 0 50 -17 81 -47c14 38 21 76 21 116c0 141 -70 224 -173 224s-173 -83 -173 -224c0 -135 70 -219 175 -219c18 0 34 3 52 10z" />
    <glyph glyph-name="R" unicode="R" horiz-adv-x="608" 
d="M225 561v-172h75c66 0 103 33 103 88c0 53 -36 84 -101 84h-77zM175 711h126c175 0 271 -91 271 -222c0 -101 -63 -174 -170 -192l128 -142c32 -36 48 -67 48 -93c0 -42 -32 -71 -77 -71c-32 0 -57 16 -87 53l-189 237v-175c0 -77 -26 -115 -81 -115s-81 38 -81 115v491
c0 79 22 114 112 114z" />
    <glyph glyph-name="S" unicode="S" horiz-adv-x="566" 
d="M296 732c118 0 194 -50 194 -107c0 -42 -26 -69 -73 -69c-39 0 -84 26 -127 26c-50 0 -79 -27 -79 -62c0 -51 48 -57 129 -84c132 -44 196 -109 196 -216c0 -138 -106 -241 -276 -241c-133 0 -230 58 -230 116c0 43 30 73 80 73c43 0 101 -39 173 -39c45 0 80 34 80 76
c0 57 -47 75 -124 98c-137 41 -201 91 -201 202c0 128 101 227 258 227z" />
    <glyph glyph-name="T" unicode="T" horiz-adv-x="512" 
d="M115 711h282c77 0 115 -25 115 -76s-38 -74 -115 -74h-60v-455c0 -77 -26 -115 -81 -115s-81 38 -81 115v455h-60c-77 0 -115 23 -115 74s38 76 115 76z" />
    <glyph glyph-name="U" unicode="U" horiz-adv-x="736" 
d="M144 723c55 0 81 -38 81 -115v-285c0 -126 49 -189 143 -189s143 63 143 189v285c0 77 26 115 81 115s81 -38 81 -115v-303c0 -212 -119 -326 -305 -326s-305 114 -305 326v303c0 77 26 115 81 115z" />
    <glyph glyph-name="V" unicode="V" horiz-adv-x="616" 
d="M89 723c36 0 56 -21 74 -70l150 -404l139 398c18 53 38 76 80 76c49 0 79 -29 79 -75c0 -16 -3 -36 -11 -56l-210 -534c-19 -48 -42 -67 -82 -67c-39 0 -60 18 -77 61l-217 544c-5 13 -9 31 -9 46c0 47 36 81 84 81z" />
    <glyph glyph-name="W" unicode="W" horiz-adv-x="914" 
d="M87 723c42 0 70 -30 78 -73l85 -452l118 454c12 45 42 71 90 71c47 0 76 -27 88 -73l116 -452l85 441c11 56 34 84 82 84c49 0 80 -36 80 -78c0 -18 -5 -44 -10 -64l-120 -483c-18 -73 -38 -107 -112 -107c-58 0 -92 29 -108 91l-106 406l-100 -397
c-16 -65 -57 -100 -117 -100c-64 0 -94 32 -111 107l-114 497c-3 15 -6 36 -6 53c0 45 34 75 82 75z" />
    <glyph glyph-name="X" unicode="X" horiz-adv-x="607" 
d="M122 723c28 0 52 -22 83 -65l100 -140l102 142c29 41 57 63 86 63c36 0 71 -37 71 -72c0 -28 -15 -52 -36 -82l-131 -182l173 -244c23 -33 37 -55 37 -82c0 -36 -34 -70 -74 -70c-33 0 -59 20 -88 61l-144 202l-143 -201c-28 -40 -54 -62 -85 -62c-39 0 -73 36 -73 71
c0 29 15 52 36 82l173 241l-130 182c-21 29 -36 54 -36 80c0 40 32 76 79 76z" />
    <glyph glyph-name="Y" unicode="Y" horiz-adv-x="563" 
d="M77 723c26 0 55 -24 84 -65l121 -173l123 175c27 39 59 63 87 63c36 0 71 -37 71 -72c0 -25 -13 -48 -37 -82l-164 -234v-229c0 -77 -26 -115 -81 -115s-81 38 -81 115v229l-164 232c-23 32 -36 55 -36 82c0 36 31 74 77 74z" />
    <glyph glyph-name="Z" unicode="Z" horiz-adv-x="546" 
d="M126 711h275c93 0 139 -23 139 -79c0 -25 -9 -48 -47 -99l-283 -383h221c77 0 115 -24 115 -75s-38 -75 -115 -75h-317c-76 0 -114 26 -114 81c0 38 20 65 45 98l288 382h-207c-77 0 -115 25 -115 76c0 49 38 74 115 74z" />
    <glyph glyph-name="bracketleft" unicode="[" horiz-adv-x="324" 
d="M194 645v-686h48c50 0 77 -21 77 -54c0 -37 -26 -53 -78 -53h-72c-86 0 -111 25 -111 102v684c0 79 22 114 112 114h72c50 0 77 -20 77 -53c0 -37 -26 -54 -78 -54h-47z" />
    <glyph glyph-name="backslash" unicode="\" horiz-adv-x="370" 
d="M21 733c31 0 50 -21 70 -58l310 -587c10 -19 15 -35 15 -48c0 -36 -31 -63 -67 -63c-28 0 -49 19 -70 58l-310 587c-10 19 -14 34 -14 49c0 36 30 62 66 62z" />
    <glyph glyph-name="bracketright" unicode="]" horiz-adv-x="324" 
d="M130 -41v686h-47c-52 0 -78 17 -78 54c0 33 27 53 77 53h72c90 0 112 -35 112 -114v-684c0 -77 -24 -102 -110 -102h-73c-52 0 -78 16 -78 53c0 33 27 54 77 54h48z" />
    <glyph glyph-name="asciicircum" unicode="^" horiz-adv-x="700" 
d="M350 731c28 0 70 -18 86 -45l190 -316c9 -16 20 -41 20 -67c0 -30 -23 -55 -55 -55c-36 0 -65 17 -95 70l-146 260l-146 -260c-30 -53 -59 -70 -95 -70c-32 0 -55 25 -55 55c0 26 11 51 20 67l189 315c17 28 59 46 87 46z" />
    <glyph glyph-name="underscore" unicode="_" 
d="M0 -136h500c37 0 70 -16 70 -51s-29 -51 -71 -51h-499c-37 0 -71 15 -71 51c0 35 32 51 71 51z" />
    <glyph glyph-name="grave" unicode="`" 
d="M181 808c22 0 42 -11 57 -32l73 -100c12 -16 17 -31 17 -44c0 -33 -22 -55 -54 -55c-18 0 -35 9 -54 31l-76 84c-17 19 -26 38 -26 54c0 36 27 62 63 62z" />
    <glyph glyph-name="a" unicode="a" horiz-adv-x="603" 
d="M289 402c-57 0 -102 -56 -102 -134c0 -80 44 -137 102 -137s103 59 103 137c0 77 -46 134 -103 134zM396 48c-32 -39 -78 -61 -132 -61c-129 0 -239 114 -239 279c0 160 111 280 245 280c54 0 94 -19 126 -57c18 32 43 50 75 50c54 0 78 -37 78 -114v-317
c0 -77 -25 -115 -78 -115c-35 0 -58 17 -75 55z" />
    <glyph glyph-name="b" unicode="b" horiz-adv-x="603" 
d="M211 503c31 27 72 43 125 43c132 0 242 -114 242 -280c0 -155 -113 -279 -242 -279c-52 0 -97 22 -128 57c-19 -33 -44 -51 -75 -51c-54 0 -79 38 -79 115v540c0 77 25 115 79 115s78 -38 78 -115v-145zM313 402c-59 0 -102 -54 -102 -137c0 -82 43 -134 102 -134
s103 57 103 137c0 82 -44 134 -103 134z" />
    <glyph glyph-name="c" unicode="c" horiz-adv-x="497" 
d="M296 546c106 0 176 -42 176 -101c0 -38 -27 -67 -65 -67c-29 0 -66 24 -111 24c-64 0 -109 -56 -109 -137c0 -82 43 -134 115 -134c46 0 82 24 108 24c36 0 61 -31 61 -68c0 -55 -75 -100 -185 -100c-154 0 -261 112 -261 279c0 163 106 280 271 280z" />
    <glyph glyph-name="d" unicode="d" horiz-adv-x="603" 
d="M396 44c-32 -35 -77 -57 -128 -57c-129 0 -243 123 -243 284c0 160 111 275 243 275c47 0 88 -11 124 -42v144c0 77 25 115 79 115c53 0 78 -38 78 -115v-540c0 -77 -24 -115 -78 -115c-31 0 -57 18 -75 51zM291 402c-59 0 -104 -52 -104 -134c0 -80 45 -137 104 -137
s101 56 101 137c0 83 -42 134 -101 134z" />
    <glyph glyph-name="e" unicode="e" horiz-adv-x="572" 
d="M187 223c7 -59 51 -98 119 -98c79 0 130 51 166 51c38 0 63 -25 63 -61c0 -62 -100 -128 -237 -128c-155 0 -273 118 -273 279s114 280 265 280s257 -118 257 -259c0 -54 -25 -64 -78 -64h-282zM186 325h208c-4 55 -50 93 -103 93s-94 -35 -105 -93z" />
    <glyph glyph-name="f" unicode="f" horiz-adv-x="370" 
d="M266 763c65 0 104 -31 104 -79c0 -44 -27 -58 -72 -65c-33 -5 -38 -14 -38 -59v-38h26c63 0 100 -24 100 -67c0 -44 -33 -68 -100 -68h-26v-279c0 -77 -24 -115 -78 -115s-79 38 -79 115v279h-6c-56 0 -89 27 -89 68c0 43 32 67 95 67v30c0 138 59 211 163 211z" />
    <glyph glyph-name="g" unicode="g" horiz-adv-x="599" 
d="M290 402c-58 0 -103 -57 -103 -136c0 -81 44 -129 103 -129s105 50 105 129c0 80 -47 136 -105 136zM396 489c18 33 46 50 70 50c54 0 79 -37 79 -114v-317c0 -211 -64 -338 -277 -338c-144 0 -231 55 -231 117c0 40 29 69 68 69s86 -42 169 -42c77 0 121 47 121 133v19
c-34 -49 -80 -73 -142 -73c-124 0 -228 113 -228 273s110 280 244 280c54 0 95 -19 127 -57z" />
    <glyph glyph-name="h" unicode="h" horiz-adv-x="592" 
d="M211 493h1c34 36 80 46 134 46c123 0 192 -67 192 -204v-226c0 -77 -24 -116 -78 -116s-79 38 -79 115v178c0 83 -20 118 -84 118c-60 0 -86 -36 -86 -115v-180c0 -77 -24 -116 -78 -116s-79 38 -79 115v540c0 77 25 115 79 115c53 0 78 -38 78 -115v-155z" />
    <glyph glyph-name="i" unicode="i" horiz-adv-x="275" 
d="M138 539c53 0 78 -37 78 -114v-317c0 -77 -24 -115 -78 -115s-79 38 -79 115v317c0 77 25 114 79 114zM138 764c50 0 90 -40 90 -90c0 -51 -40 -91 -90 -91c-51 0 -91 40 -91 91c0 50 41 90 91 90z" />
    <glyph glyph-name="j" unicode="j" horiz-adv-x="275" 
d="M138 539c53 0 78 -37 78 -114v-530c0 -77 -24 -115 -78 -115s-79 38 -79 115v530c0 77 25 114 79 114zM47 674c0 50 41 90 91 90s90 -40 90 -90c0 -51 -40 -91 -90 -91c-51 0 -91 40 -91 91z" />
    <glyph glyph-name="k" unicode="k" horiz-adv-x="525" 
d="M133 763c53 0 78 -38 78 -115v-290l135 139c29 30 53 42 81 42c37 0 66 -27 66 -60c0 -25 -16 -54 -40 -76l-106 -98l147 -173c21 -25 31 -48 31 -76c0 -36 -32 -63 -74 -63c-30 0 -57 14 -82 47l-158 210v-142c0 -77 -24 -115 -78 -115s-79 38 -79 115v540
c0 77 25 115 79 115z" />
    <glyph glyph-name="l" unicode="l" horiz-adv-x="275" 
d="M138 763c53 0 78 -37 78 -114v-541c0 -77 -24 -115 -78 -115s-79 38 -79 115v541c0 77 25 114 79 114z" />
    <glyph glyph-name="m" unicode="m" horiz-adv-x="883" 
d="M134 539c31 0 56 -16 75 -50c33 36 73 50 126 50c68 0 120 -23 157 -72c48 53 94 72 159 72c109 0 178 -69 178 -205v-226c0 -77 -25 -115 -79 -115s-78 38 -78 115v178c0 80 -21 118 -72 118c-57 0 -80 -37 -80 -116v-180c0 -77 -25 -115 -79 -115s-78 38 -78 115v178
c0 80 -21 118 -72 118c-57 0 -80 -37 -80 -116v-180c0 -77 -25 -115 -79 -115s-78 38 -78 115v317c0 77 26 114 80 114z" />
    <glyph glyph-name="n" unicode="n" horiz-adv-x="592" 
d="M133 539c31 0 56 -16 75 -50c35 38 77 50 138 50c123 0 192 -67 192 -204v-226c0 -77 -24 -116 -78 -116s-79 38 -79 115v178c0 83 -20 118 -84 118c-60 0 -86 -36 -86 -115v-180c0 -77 -24 -116 -78 -116s-79 38 -79 115v317c0 77 25 114 79 114z" />
    <glyph glyph-name="o" unicode="o" horiz-adv-x="583" 
d="M292 546c156 0 266 -116 266 -280s-110 -279 -266 -279c-155 0 -267 115 -267 279s112 280 267 280zM292 402c-58 0 -105 -53 -105 -135c0 -83 45 -136 105 -136s104 55 104 137c0 80 -46 134 -104 134z" />
    <glyph glyph-name="p" unicode="p" horiz-adv-x="603" 
d="M208 493c32 35 76 53 130 53c132 0 240 -114 240 -276c0 -159 -110 -283 -242 -283c-48 0 -89 16 -125 47v-135c0 -77 -24 -115 -78 -115s-79 38 -79 115v530c0 77 25 110 79 110c31 0 56 -12 75 -46zM313 402c-58 0 -102 -53 -102 -135c0 -83 42 -136 102 -136
s103 55 103 137c0 80 -45 134 -103 134z" />
    <glyph glyph-name="q" unicode="q" horiz-adv-x="603" 
d="M396 493c19 33 44 46 75 46c54 0 78 -33 78 -110v-530c0 -77 -25 -115 -78 -115c-54 0 -79 38 -79 115v134c-36 -31 -77 -46 -125 -46c-132 0 -242 124 -242 283c0 162 108 276 240 276c54 0 99 -18 131 -53zM291 402c-59 0 -104 -54 -104 -134c0 -82 43 -137 103 -137
s102 54 102 137c0 82 -43 134 -101 134z" />
    <glyph glyph-name="r" unicode="r" horiz-adv-x="395" 
d="M208 489c33 35 70 57 107 57c44 0 80 -40 80 -82c0 -63 -70 -68 -134 -98c-44 -21 -50 -40 -50 -94v-164c0 -77 -24 -115 -78 -115s-79 38 -79 115v317c0 77 25 114 79 114c31 0 56 -16 75 -50z" />
    <glyph glyph-name="s" unicode="s" horiz-adv-x="456" 
d="M236 546c110 0 186 -52 186 -107c0 -37 -29 -66 -65 -66c-38 0 -84 38 -127 38c-23 0 -36 -12 -36 -27c0 -30 42 -37 108 -66c87 -39 129 -81 129 -153c0 -100 -85 -178 -211 -178c-117 0 -195 48 -195 112c0 40 27 69 60 69c57 0 91 -46 147 -46c27 0 44 20 44 37
c0 19 -25 35 -87 58c-104 38 -150 96 -150 161c0 94 80 168 197 168z" />
    <glyph glyph-name="t" unicode="t" horiz-adv-x="383" 
d="M179 709c53 0 78 -37 78 -114v-73h21c63 0 100 -24 100 -67c0 -44 -33 -68 -100 -68h-21v-279c0 -77 -24 -115 -78 -115s-79 38 -79 115v279h-6c-56 0 -89 27 -89 68c0 43 32 67 95 67v73c0 77 25 114 79 114z" />
    <glyph glyph-name="u" unicode="u" horiz-adv-x="584" 
d="M133 539c53 0 78 -37 78 -114v-178c0 -74 17 -116 81 -116s81 42 81 116v178c0 77 25 114 79 114s78 -37 78 -114v-210c0 -151 -85 -228 -238 -228s-238 77 -238 228v210c0 77 25 114 79 114z" />
    <glyph glyph-name="v" unicode="v" horiz-adv-x="476" 
d="M76 539c41 0 64 -25 81 -77l86 -274l85 284c13 43 38 67 74 67c44 0 74 -33 74 -79c0 -11 -4 -31 -12 -52l-133 -344c-19 -50 -39 -77 -90 -77c-53 0 -74 27 -95 82l-132 337c-8 21 -14 43 -14 55c0 44 33 78 76 78z" />
    <glyph glyph-name="w" unicode="w" horiz-adv-x="763" 
d="M76 539c40 0 66 -25 81 -77l83 -288l67 289c11 46 37 76 73 76c40 0 68 -30 80 -78l72 -283l83 294c12 43 38 67 74 67c44 0 74 -33 74 -79c0 -13 -5 -32 -12 -52l-121 -344c-19 -53 -43 -77 -90 -77c-49 0 -81 30 -95 82l-65 251l-61 -256c-11 -46 -43 -77 -90 -77
c-50 0 -74 24 -95 82l-125 349c-6 17 -9 31 -9 43c0 44 33 78 76 78z" />
    <glyph glyph-name="x" unicode="x" horiz-adv-x="513" 
d="M98 539c24 0 45 -10 65 -33l96 -111l88 108c19 23 44 36 64 36c44 0 81 -35 81 -77c0 -20 -12 -43 -35 -68l-104 -111l123 -139c20 -22 37 -42 37 -78c0 -39 -32 -73 -72 -73c-29 0 -49 14 -72 41l-113 134l-112 -134c-23 -27 -42 -41 -68 -41c-40 0 -76 34 -76 78
c0 31 13 47 33 69l131 144l-110 112c-19 20 -30 43 -30 64c0 41 34 79 74 79z" />
    <glyph glyph-name="y" unicode="y" 
d="M82 539c44 0 62 -27 80 -76l89 -238l97 251c17 43 37 63 69 63c48 0 78 -29 78 -75c0 -14 -4 -34 -13 -55l-240 -570c-17 -41 -34 -64 -69 -64c-49 0 -78 30 -78 76c0 17 4 34 13 54l65 141l-159 371c-7 15 -9 31 -9 44c0 44 34 78 77 78z" />
    <glyph glyph-name="z" unicode="z" horiz-adv-x="480" 
d="M376 144c63 0 99 -27 99 -72c0 -47 -34 -72 -100 -72h-287c-55 0 -83 9 -83 49c0 19 8 39 24 60l216 279h-136c-63 0 -99 29 -99 73c0 46 34 71 100 71h253c64 0 99 -5 99 -48c0 -20 -11 -41 -32 -69l-210 -271h156z" />
    <glyph glyph-name="braceleft" unicode="{" 
d="M223 260c83 -19 101 -58 101 -146v-118c0 -73 12 -96 84 -96c42 0 71 -16 71 -51s-33 -51 -70 -51c-153 0 -203 30 -203 166v123c0 64 -13 91 -48 111c-31 18 -81 17 -81 62s50 44 81 62c35 20 48 47 48 111v123c0 136 50 166 203 166c37 0 70 -16 70 -51
s-29 -51 -71 -51c-71 0 -84 -23 -84 -96v-118c0 -88 -18 -127 -101 -146z" />
    <glyph glyph-name="bar" unicode="|" horiz-adv-x="274" 
d="M137 764c31 0 47 -19 47 -47v-906c0 -28 -21 -47 -47 -47c-31 0 -47 19 -47 47v906c0 28 21 47 47 47z" />
    <glyph glyph-name="braceright" unicode="}" 
d="M278 260c-83 19 -101 58 -101 146v118c0 73 -13 96 -84 96c-42 0 -71 16 -71 51s33 51 70 51c153 0 203 -30 203 -166v-123c0 -64 13 -91 48 -111c31 -18 81 -17 81 -62s-50 -44 -81 -62c-35 -20 -48 -47 -48 -111v-123c0 -136 -50 -166 -203 -166c-37 0 -70 16 -70 51
s29 51 71 51c72 0 84 23 84 96v118c0 88 18 127 101 146z" />
    <glyph glyph-name="asciitilde" unicode="~" horiz-adv-x="833" 
d="M106 212c-22 0 -37 25 -37 57c0 48 121 114 208 114c128 0 186 -66 286 -66c83 0 145 70 169 70c22 0 37 -25 37 -57c0 -48 -120 -115 -207 -115c-99 0 -180 66 -287 66c-83 0 -145 -69 -169 -69z" />
    <glyph glyph-name="nbspace" unicode="&#xa0;" horiz-adv-x="324" 
 />
    <glyph glyph-name="currency" unicode="&#xa4;" horiz-adv-x="606" 
d="M309 592c-90 0 -163 -68 -163 -166c0 -87 61 -169 163 -169c88 0 159 75 159 169c0 97 -70 166 -159 166zM94 673c9 0 15 -3 23 -12l39 -41c38 36 97 53 153 53c52 0 112 -16 148 -53l45 45c5 6 12 8 19 8c16 0 34 -20 34 -37c0 -8 -4 -16 -10 -22l-39 -39
c33 -37 49 -91 49 -151s-16 -109 -49 -148l39 -39c7 -6 10 -15 10 -25c0 -18 -19 -36 -36 -36c-6 0 -17 8 -29 20l-33 35c-36 -35 -87 -55 -150 -55c-62 0 -112 20 -149 55l-45 -43c-7 -7 -15 -12 -21 -12c-14 0 -33 20 -33 38c0 9 7 19 11 23l37 39c-30 38 -48 87 -48 147
c0 52 16 113 48 152l-37 39c-6 7 -11 15 -11 23c0 19 17 36 35 36z" />
    <glyph glyph-name="brokenbar" unicode="&#xa6;" horiz-adv-x="274" 
d="M137 711c31 0 47 -19 47 -47v-226c0 -28 -21 -47 -47 -47c-31 0 -47 19 -47 47v226c0 28 21 47 47 47zM137 268c31 0 47 -19 47 -47v-226c0 -28 -21 -47 -47 -47c-31 0 -47 19 -47 47v226c0 28 21 47 47 47z" />
    <glyph glyph-name="section" unicode="&#xa7;" horiz-adv-x="541" 
d="M106 441c-34 33 -49 68 -49 112c0 103 79 179 204 179c136 0 217 -75 217 -152c0 -41 -29 -68 -64 -68c-30 0 -44 18 -62 50c-19 34 -50 53 -87 53c-41 0 -67 -22 -67 -50c0 -39 48 -56 138 -100c119 -58 190 -104 190 -204c0 -61 -32 -118 -90 -152
c35 -35 48 -69 48 -115c0 -101 -81 -175 -211 -175c-132 0 -221 73 -221 151c0 40 32 68 67 68c31 0 45 -19 63 -50c20 -35 50 -52 91 -52c45 0 70 21 70 50c0 39 -47 55 -137 99c-119 58 -191 105 -191 205c0 61 34 120 91 151zM346 175c30 16 43 38 43 68
c0 38 -49 70 -194 133c-29 -18 -43 -39 -43 -68c0 -43 63 -74 194 -133z" />
    <glyph glyph-name="guillemotleft" unicode="&#xab;" horiz-adv-x="509" 
d="M212 455c28 0 44 -15 44 -36c0 -19 -6 -31 -33 -63l-83 -99l83 -99c27 -32 33 -44 33 -63c0 -21 -16 -36 -44 -36c-22 0 -50 20 -71 46l-126 152l126 152c21 26 49 46 71 46zM445 455c28 0 44 -15 44 -36c0 -19 -6 -31 -33 -63l-83 -99l83 -99c27 -32 33 -44 33 -63
c0 -21 -16 -36 -44 -36c-22 0 -50 20 -71 46l-126 152l126 152c21 26 49 46 71 46z" />
    <glyph glyph-name="logicalnot" unicode="&#xac;" horiz-adv-x="468" 
d="M95 329h283c37 0 70 -16 70 -51v-151c0 -37 -16 -70 -51 -70s-51 29 -51 71v99h-251c-37 0 -71 15 -71 51c0 35 32 51 71 51z" />
    <glyph glyph-name="uni00AD" unicode="&#xad;" horiz-adv-x="428" 
d="M113 346h203c50 0 78 -27 78 -69c0 -44 -27 -66 -79 -66h-203c-50 0 -78 24 -78 67s28 68 79 68z" />
    <glyph glyph-name="registered" unicode="&#xae;" horiz-adv-x="833" 
d="M416 722c100 0 191 -38 261 -109c67 -68 103 -158 103 -255c0 -100 -38 -190 -107 -257c-71 -69 -163 -106 -257 -106c-97 0 -188 39 -258 110c-68 69 -104 159 -104 253c0 65 17 128 53 189c65 110 178 175 309 175zM417 662c-82 0 -154 -29 -211 -86
c-59 -59 -92 -137 -92 -217s30 -155 87 -212c58 -59 135 -92 215 -92c79 0 155 32 215 89c57 55 89 131 89 209c0 87 -29 160 -86 218c-59 60 -133 91 -217 91zM266 567h158c115 0 172 -39 172 -116c0 -53 -33 -93 -88 -107l90 -180h-109l-77 165h-48v-165h-98v403zM364 505
v-117h48c56 0 83 17 83 57c0 42 -29 60 -88 60h-43z" />
    <glyph glyph-name="macron" unicode="&#xaf;" 
d="M154 610c-20 0 -35 5 -48 16c-11 12 -17 27 -17 46c0 18 6 34 18 45c12 12 28 18 47 18h192c20 0 35 -6 48 -17c11 -10 17 -26 17 -45c0 -18 -6 -33 -18 -46c-12 -11 -27 -17 -47 -17h-192z" />
    <glyph glyph-name="degree" unicode="&#xb0;" horiz-adv-x="366" 
d="M183 652c-51 0 -85 -40 -85 -85c0 -48 38 -86 85 -86s85 39 85 86c0 44 -35 85 -85 85zM183 715c85 0 148 -70 148 -149c0 -80 -65 -148 -149 -148c-82 0 -147 65 -147 148c0 79 63 149 148 149z" />
    <glyph glyph-name="plusminus" unicode="&#xb1;" horiz-adv-x="830" 
d="M166 102h499c37 0 70 -16 70 -51s-29 -51 -71 -51h-498c-37 0 -71 15 -71 51c0 35 32 52 71 51zM466 482h199c37 0 70 -16 70 -51s-29 -51 -71 -51h-198v-151c0 -37 -16 -70 -51 -70s-51 29 -51 71v150h-198c-37 0 -71 15 -71 51c0 35 32 51 71 51h198v150
c0 37 15 71 51 71c35 0 51 -32 51 -71v-150z" />
    <glyph glyph-name="acute" unicode="&#xb4;" 
d="M316 808c35 0 63 -25 63 -60c0 -21 -11 -39 -26 -56l-76 -84c-18 -20 -35 -31 -54 -31c-32 0 -54 21 -54 55c0 16 7 30 17 44l73 100c14 20 33 32 57 32z" />
    <glyph glyph-name="paragraph" unicode="&#xb6;" horiz-adv-x="520" 
d="M377 647h-76v-808c0 -37 -16 -70 -51 -70s-51 29 -51 71v543c-102 0 -179 67 -179 169c0 108 84 170 191 170h192c50 0 76 -25 76 -83v-800c0 -37 -16 -70 -51 -70s-51 29 -51 71v807z" />
    <glyph glyph-name="periodcentered" unicode="&#xb7;" horiz-adv-x="324" 
d="M162 446c50 0 91 -42 91 -91c0 -53 -42 -91 -91 -91c-48 0 -91 35 -91 91c0 50 42 91 91 91z" />
    <glyph glyph-name="guillemotright" unicode="&#xbb;" horiz-adv-x="509" 
d="M297 455c22 0 50 -20 71 -46l126 -152l-126 -152c-21 -26 -49 -46 -71 -46c-28 0 -44 15 -44 36c0 19 6 31 33 63l83 99l-83 99c-27 32 -33 44 -33 63c0 21 16 36 44 36zM64 455c22 0 50 -20 71 -46l126 -152l-126 -152c-21 -26 -49 -46 -71 -46c-28 0 -44 15 -44 36
c0 19 6 31 33 63l83 99l-83 99c-27 32 -33 44 -33 63c0 21 16 36 44 36z" />
    <glyph glyph-name="circumflex" unicode="&#x2c6;" 
d="M250 653l-87 -53c-17 -10 -33 -15 -46 -15c-27 0 -47 20 -47 51c0 24 10 38 30 54l109 85c13 10 28 16 41 16s28 -6 41 -16l109 -85c20 -16 30 -31 30 -54c0 -31 -20 -51 -47 -51c-13 0 -29 5 -46 15z" />
    <glyph glyph-name="uni02C9" unicode="&#x2c9;" 
d="M154 610c-20 0 -35 5 -48 16c-11 12 -17 27 -17 46c0 18 6 34 18 45c12 12 28 18 47 18h192c20 0 35 -6 48 -17c11 -10 17 -26 17 -45c0 -18 -6 -33 -18 -46c-12 -11 -27 -17 -47 -17h-192z" />
    <glyph glyph-name="tilde" unicode="&#x2dc;" 
d="M215 619c-10 0 -22 -3 -35 -9c-13 -5 -22 -7 -28 -8c-14 0 -25 4 -32 14c-8 9 -12 22 -12 39c0 24 8 45 24 62c16 16 36 25 60 25c11 0 27 -3 47 -10c20 -5 35 -8 45 -9c10 0 21 3 35 9c13 6 22 9 29 9c13 0 23 -5 32 -15c8 -10 12 -22 12 -39c0 -24 -8 -45 -24 -62
s-36 -25 -60 -25c-11 0 -27 3 -47 9c-20 7 -35 10 -46 10z" />
    <glyph glyph-name="uni037E" unicode="&#x37e;" horiz-adv-x="252" 
d="M137 478c50 0 91 -42 91 -91c0 -53 -42 -91 -91 -91c-48 0 -91 35 -91 91c0 50 42 91 91 91zM151 162c36 0 66 -26 66 -62c0 -15 -6 -32 -16 -51l-79 -144c-20 -37 -44 -55 -70 -55c-35 0 -66 27 -66 63c0 14 5 31 16 50l79 144c20 37 41 55 70 55z" />
    <glyph glyph-name="afii10023" unicode="&#x401;" horiz-adv-x="505" 
d="M225 561v-128h114c77 0 115 -24 115 -75s-38 -75 -115 -75h-114v-133h137c77 0 115 -24 115 -75s-38 -75 -115 -75h-189c-86 0 -110 25 -110 102v495c0 79 22 114 112 114h182c77 0 115 -25 115 -76s-38 -74 -115 -74h-132zM170 939c40 0 73 -33 73 -73s-33 -72 -73 -72
s-72 32 -72 72s32 73 72 73zM373 939c40 0 73 -33 73 -73s-33 -72 -73 -72s-72 32 -72 72s32 73 72 73z" />
    <glyph glyph-name="afii10051" unicode="&#x402;" horiz-adv-x="760" 
d="M337 561v-153c36 14 81 27 122 27c131 0 246 -56 246 -216c0 -156 -86 -219 -227 -219c-57 0 -102 17 -102 68c0 49 30 67 97 67c45 0 70 28 70 83c0 54 -30 82 -93 82c-44 0 -79 -10 -113 -31v-163c0 -77 -26 -115 -81 -115s-81 38 -81 115v455h-60
c-77 0 -115 23 -115 74s38 76 115 76h336c77 0 115 -25 115 -76s-38 -74 -115 -74h-114z" />
    <glyph glyph-name="afii10052" unicode="&#x403;" horiz-adv-x="490" 
d="M175 711h182c77 0 115 -25 115 -76s-38 -74 -115 -74h-132v-455c0 -77 -26 -115 -81 -115s-81 38 -81 115v491c0 79 22 114 112 114zM352 1015c35 0 63 -25 63 -60c0 -21 -11 -39 -26 -56l-76 -84c-18 -20 -35 -31 -54 -31c-32 0 -54 21 -54 55c0 16 7 30 17 44l73 100
c14 20 33 32 57 32z" />
    <glyph glyph-name="afii10053" unicode="&#x404;" horiz-adv-x="632" 
d="M380 732c90 0 213 -39 213 -115c0 -39 -33 -67 -70 -67c-58 0 -50 27 -142 27c-81 0 -154 -57 -165 -141h172c75 0 114 -23 114 -76c0 -49 -36 -74 -114 -74h-175c18 -92 82 -152 173 -152c50 0 89 39 143 39c39 0 73 -32 73 -71c0 -76 -96 -123 -224 -123
c-208 0 -348 150 -348 376c0 220 146 377 350 377z" />
    <glyph glyph-name="afii10054" unicode="&#x405;" horiz-adv-x="566" 
d="M296 732c118 0 194 -50 194 -107c0 -42 -26 -69 -73 -69c-39 0 -84 26 -127 26c-50 0 -79 -27 -79 -62c0 -51 48 -57 129 -84c132 -44 196 -109 196 -216c0 -138 -106 -241 -276 -241c-133 0 -230 58 -230 116c0 43 30 73 80 73c43 0 101 -39 173 -39c45 0 80 34 80 76
c0 57 -47 75 -124 98c-137 41 -201 91 -201 202c0 128 101 227 258 227z" />
    <glyph glyph-name="afii10055" unicode="&#x406;" horiz-adv-x="296" 
d="M148 723c55 0 81 -38 81 -115v-502c0 -77 -26 -115 -81 -115s-81 38 -81 115v502c0 77 26 115 81 115z" />
    <glyph glyph-name="afii10056" unicode="&#x407;" horiz-adv-x="296" 
d="M148 723c55 0 81 -38 81 -115v-502c0 -77 -26 -115 -81 -115s-81 38 -81 115v502c0 77 26 115 81 115zM39 939c40 0 73 -33 73 -73s-33 -72 -73 -72s-72 32 -72 72s32 73 72 73zM256 939c40 0 73 -33 73 -73s-33 -72 -73 -72s-72 32 -72 72s32 73 72 73z" />
    <glyph glyph-name="afii10057" unicode="&#x408;" horiz-adv-x="458" 
d="M314 723c55 0 81 -38 81 -115v-391c0 -157 -73 -238 -208 -238c-111 0 -185 57 -185 119c0 43 30 73 75 73c40 0 70 -37 103 -37c44 0 53 49 53 135v339c0 77 26 115 81 115z" />
    <glyph glyph-name="afii10058" unicode="&#x409;" horiz-adv-x="1021" 
d="M468 561h-179v-101c0 -103 -12 -227 -73 -354c-38 -80 -72 -115 -121 -115c-46 0 -77 28 -77 69c0 19 13 53 32 79c65 88 82 133 82 242v216c0 86 28 114 112 114h274c84 0 112 -28 112 -114v-141h87c142 0 274 -60 274 -233c0 -118 -94 -223 -253 -223h-160
c-84 0 -110 22 -110 102v459zM630 318v-180h81c70 0 110 30 110 91c0 64 -35 89 -113 89h-78z" />
    <glyph glyph-name="afii10059" unicode="&#x40a;" horiz-adv-x="1045" 
d="M225 456h267v152c0 77 26 115 81 115s81 -38 81 -115v-152h87c142 0 274 -60 274 -233c0 -118 -94 -223 -253 -223h-160c-84 0 -110 22 -110 102v216h-267v-212c0 -77 -26 -115 -81 -115s-81 38 -81 115v502c0 77 26 115 81 115s81 -38 81 -115v-152zM654 318v-180h81
c70 0 110 30 110 91c0 64 -35 89 -113 89h-78z" />
    <glyph glyph-name="afii10060" unicode="&#x40b;" horiz-adv-x="760" 
d="M337 561v-171c36 14 81 27 122 27c131 0 246 -41 246 -244v-67c0 -77 -25 -115 -81 -115c-53 0 -81 35 -81 115v55c0 98 -30 121 -93 121c-44 0 -79 -10 -113 -31v-145c0 -77 -26 -115 -81 -115s-81 38 -81 115v455h-60c-77 0 -115 23 -115 74s38 76 115 76h336
c77 0 115 -25 115 -76s-38 -74 -115 -74h-114z" />
    <glyph glyph-name="afii10061" unicode="&#x40c;" horiz-adv-x="635" 
d="M144 723c55 0 81 -38 81 -115v-179l210 238c31 35 55 56 84 56c39 0 73 -34 73 -74c0 -26 -14 -52 -41 -80l-179 -187l217 -236c27 -30 41 -58 41 -80c0 -42 -38 -75 -75 -75c-35 0 -57 24 -87 57l-243 268v-210c0 -77 -26 -115 -81 -115s-81 38 -81 115v502
c0 77 26 115 81 115zM418 1015c35 0 63 -25 63 -60c0 -21 -11 -39 -26 -56l-76 -84c-18 -20 -35 -31 -54 -31c-32 0 -54 21 -54 55c0 16 7 30 17 44l73 100c14 20 33 32 57 32z" />
    <glyph glyph-name="afii10062" unicode="&#x40e;" horiz-adv-x="580" 
d="M101 723c41 0 63 -32 83 -69l130 -234l111 227c22 45 42 76 89 76c33 0 61 -21 61 -71c0 -21 -12 -47 -28 -76l-263 -490c-32 -61 -56 -95 -103 -95c-38 0 -69 27 -69 64c0 21 7 42 22 65l99 159l-182 285c-22 35 -33 68 -33 88c0 48 46 71 83 71zM309 745
c-80 0 -165 57 -165 122c0 33 19 55 52 55c54 0 62 -65 118 -65c48 0 43 65 107 65c33 0 53 -20 53 -55c0 -66 -85 -122 -165 -122z" />
    <glyph glyph-name="afii10145" unicode="&#x40f;" horiz-adv-x="749" 
d="M225 150h299v458c0 77 26 115 81 115s81 -38 81 -115v-493c0 -77 -26 -115 -81 -115h-152v-126c0 -78 -25 -115 -78 -115c-52 0 -79 36 -79 115v126h-152c-55 0 -81 38 -81 115v493c0 77 26 115 81 115s81 -38 81 -115v-458z" />
    <glyph glyph-name="afii10017" unicode="&#x410;" horiz-adv-x="637" 
d="M230 284h169l-81 263zM322 723c55 0 97 -33 119 -94l180 -511c7 -20 11 -37 11 -51c0 -46 -35 -76 -80 -76c-42 0 -68 26 -85 79l-20 64h-263l-24 -70c-15 -45 -43 -73 -78 -73c-45 0 -77 33 -77 78c0 16 2 32 8 47l185 502c26 71 64 105 124 105z" />
    <glyph glyph-name="afii10018" unicode="&#x411;" horiz-adv-x="616" 
d="M225 573v-139h88c142 0 273 -47 273 -220c0 -117 -93 -214 -253 -214h-160c-82 0 -110 20 -110 102v495c0 86 28 114 112 114h221c75 0 115 -20 115 -68c0 -53 -33 -70 -114 -70h-172zM225 299v-161h81c71 0 110 29 110 81c0 53 -37 80 -113 80h-78z" />
    <glyph glyph-name="afii10019" unicode="&#x412;" horiz-adv-x="616" 
d="M175 711h133c146 0 222 -70 222 -177c0 -69 -28 -114 -88 -140c93 -23 144 -87 144 -180c0 -130 -88 -214 -253 -214h-160c-86 0 -110 25 -110 102v495c0 79 22 114 112 114zM225 299v-161h80c73 0 111 30 111 81c0 56 -38 80 -113 80h-78zM225 573v-139h68
c49 0 80 29 80 69c0 43 -32 70 -82 70h-66z" />
    <glyph glyph-name="afii10020" unicode="&#x413;" horiz-adv-x="490" 
d="M175 711h182c77 0 115 -25 115 -76s-38 -74 -115 -74h-132v-455c0 -77 -26 -115 -81 -115s-81 38 -81 115v491c0 79 22 114 112 114z" />
    <glyph glyph-name="afii10021" unicode="&#x414;" horiz-adv-x="830" 
d="M655 0h-480v-89c0 -79 -27 -115 -79 -115c-53 0 -78 37 -78 115v117c0 79 43 122 97 122c60 59 73 156 73 263v184c0 86 28 114 112 114h300c84 0 112 -28 112 -114v-447c48 0 100 -25 100 -122v-117c0 -78 -24 -115 -78 -115c-51 0 -79 36 -79 115v89zM550 150v411h-205
v-42c0 -152 -12 -307 -72 -369h277z" />
    <glyph glyph-name="afii10022" unicode="&#x415;" horiz-adv-x="505" 
d="M225 561v-128h114c77 0 115 -24 115 -75s-38 -75 -115 -75h-114v-133h137c77 0 115 -24 115 -75s-38 -75 -115 -75h-189c-86 0 -110 25 -110 102v495c0 79 22 114 112 114h182c77 0 115 -25 115 -76s-38 -74 -115 -74h-132z" />
    <glyph glyph-name="afii10024" unicode="&#x416;" horiz-adv-x="982" 
d="M491 723c53 0 81 -35 81 -115v-179l210 238c31 35 55 56 84 56c39 0 73 -34 73 -74c0 -26 -14 -52 -41 -80l-179 -187l217 -236c27 -30 41 -58 41 -80c0 -42 -38 -75 -75 -75c-35 0 -57 24 -87 57l-243 268v-210c0 -76 -27 -115 -81 -115c-55 0 -81 36 -81 115v210
l-243 -268c-30 -33 -52 -57 -87 -57c-37 0 -75 33 -75 75c0 22 14 50 41 80l217 236l-179 187c-27 28 -41 54 -41 80c0 40 34 74 73 74c29 0 53 -21 84 -56l210 -238v179c0 77 23 115 81 115z" />
    <glyph glyph-name="afii10025" unicode="&#x417;" horiz-adv-x="613" 
d="M304 732c157 0 252 -77 252 -195c0 -59 -34 -116 -95 -146c90 -35 122 -99 122 -182c0 -114 -117 -230 -273 -230c-188 0 -284 106 -284 186c0 25 29 66 76 66c86 0 78 -114 197 -114c84 0 114 66 114 104c0 39 -20 84 -88 84h-59c-48 0 -68 30 -68 70c0 46 29 65 68 65
h36c62 0 92 35 92 86c0 44 -39 68 -86 68c-83 0 -111 -32 -135 -64c-19 -25 -36 -38 -64 -38c-42 0 -59 37 -59 69c0 84 108 171 254 171z" />
    <glyph glyph-name="afii10026" unicode="&#x418;" horiz-adv-x="748" 
d="M144 723c55 0 81 -38 81 -115v-336l299 395c26 34 52 56 87 56c52 0 74 -41 74 -112v-505c0 -77 -26 -115 -81 -115s-81 38 -81 115v327l-293 -387c-30 -40 -59 -55 -93 -55c-52 0 -74 30 -74 97v520c0 77 26 115 81 115z" />
    <glyph glyph-name="afii10027" unicode="&#x419;" horiz-adv-x="748" 
d="M144 723c55 0 81 -38 81 -115v-336l299 395c26 34 52 56 87 56c52 0 74 -41 74 -112v-505c0 -77 -26 -115 -81 -115s-81 38 -81 115v327l-293 -387c-30 -40 -59 -55 -93 -55c-52 0 -74 30 -74 97v520c0 77 26 115 81 115zM390 745c-80 0 -165 57 -165 122
c0 33 19 55 52 55c54 0 62 -65 118 -65c48 0 43 65 107 65c33 0 53 -20 53 -55c0 -66 -85 -122 -165 -122z" />
    <glyph glyph-name="afii10028" unicode="&#x41a;" horiz-adv-x="635" 
d="M144 723c55 0 81 -38 81 -115v-179l210 238c31 35 55 56 84 56c39 0 73 -34 73 -74c0 -26 -14 -52 -41 -80l-179 -187l217 -236c27 -30 41 -58 41 -80c0 -42 -38 -75 -75 -75c-35 0 -57 24 -87 57l-243 268v-210c0 -77 -26 -115 -81 -115s-81 38 -81 115v502
c0 77 26 115 81 115z" />
    <glyph glyph-name="afii10029" unicode="&#x41b;" horiz-adv-x="719" 
d="M494 561h-205v-101c0 -103 -12 -227 -73 -354c-38 -80 -72 -115 -121 -115c-46 0 -77 28 -77 69c0 19 13 53 32 79c65 88 82 133 82 242v216c0 86 28 114 112 114h300c84 0 112 -28 112 -114v-491c0 -76 -24 -115 -81 -115c-53 0 -81 36 -81 115v455z" />
    <glyph glyph-name="afii10030" unicode="&#x41c;" horiz-adv-x="869" 
d="M221 723c60 0 97 -34 113 -99l108 -425l101 426c15 62 52 98 111 98c71 0 101 -41 114 -120l79 -489c3 -17 4 -30 4 -39c0 -53 -34 -84 -82 -84c-46 0 -73 31 -80 94l-50 425h-1l-110 -438c-11 -44 -29 -81 -90 -81c-53 0 -80 20 -95 81l-104 438h-1l-56 -415
c-10 -71 -35 -104 -85 -104c-46 0 -79 31 -79 84c0 12 2 28 6 49l87 485c13 75 41 114 110 114z" />
    <glyph glyph-name="afii10031" unicode="&#x41d;" horiz-adv-x="748" 
d="M225 437h298v171c0 77 26 115 81 115s81 -38 81 -115v-502c0 -77 -26 -115 -81 -115s-81 38 -81 115v181h-298v-181c0 -77 -26 -115 -81 -115s-81 38 -81 115v502c0 77 26 115 81 115s81 -38 81 -115v-171z" />
    <glyph glyph-name="afii10032" unicode="&#x41e;" horiz-adv-x="758" 
d="M379 732c207 0 349 -150 349 -377c0 -224 -139 -376 -349 -376s-349 151 -349 376c0 226 142 377 349 377zM379 577c-103 0 -173 -83 -173 -224c0 -135 71 -219 173 -219s173 84 173 219c0 141 -70 224 -173 224z" />
    <glyph glyph-name="afii10033" unicode="&#x41f;" horiz-adv-x="748" 
d="M523 561h-298v-455c0 -76 -24 -115 -81 -115c-54 0 -81 36 -81 115v491c0 86 28 114 112 114h398c84 0 112 -28 112 -114v-491c0 -76 -24 -115 -81 -115c-54 0 -81 36 -81 115v455z" />
    <glyph glyph-name="afii10034" unicode="&#x420;" horiz-adv-x="612" 
d="M225 562v-187h70c74 0 111 32 111 94c0 64 -36 93 -111 93h-70zM175 711h146c163 0 261 -95 261 -242c0 -149 -91 -241 -248 -241h-109v-122c0 -77 -26 -115 -81 -115s-81 38 -81 115v491c0 79 22 114 112 114z" />
    <glyph glyph-name="afii10035" unicode="&#x421;" horiz-adv-x="630" 
d="M381 732c126 0 212 -51 212 -108c0 -38 -32 -76 -70 -76c-37 0 -83 29 -142 29c-104 0 -175 -89 -175 -226c0 -133 71 -217 180 -217c68 0 113 39 151 39c33 0 65 -33 65 -71c0 -63 -90 -123 -224 -123c-206 0 -348 147 -348 376c0 228 155 377 351 377z" />
    <glyph glyph-name="afii10036" unicode="&#x422;" horiz-adv-x="512" 
d="M115 711h282c77 0 115 -25 115 -76s-38 -74 -115 -74h-60v-455c0 -77 -26 -115 -81 -115s-81 38 -81 115v455h-60c-77 0 -115 23 -115 74s38 76 115 76z" />
    <glyph glyph-name="afii10037" unicode="&#x423;" horiz-adv-x="580" 
d="M101 723c41 0 63 -32 83 -69l130 -234l111 227c22 45 42 76 89 76c33 0 61 -21 61 -71c0 -21 -12 -47 -28 -76l-263 -490c-32 -61 -56 -95 -103 -95c-38 0 -69 27 -69 64c0 21 7 42 22 65l99 159l-182 285c-22 35 -33 68 -33 88c0 48 46 71 83 71z" />
    <glyph glyph-name="afii10038" unicode="&#x424;" horiz-adv-x="914" 
d="M457 723c53 0 81 -37 81 -98v-20h86c158 0 260 -91 260 -242c0 -150 -108 -241 -247 -241h-99v-31c0 -60 -27 -100 -81 -100c-55 0 -81 35 -81 100v31h-99c-157 0 -247 91 -247 241c0 151 101 242 260 242h86v20c0 63 24 98 81 98zM538 467v-208h60c73 0 110 41 110 104
c0 62 -33 104 -110 104h-60zM376 259v208h-60c-77 0 -110 -42 -110 -104c0 -63 37 -104 110 -104h60z" />
    <glyph glyph-name="afii10039" unicode="&#x425;" horiz-adv-x="607" 
d="M122 723c28 0 52 -22 83 -65l100 -140l102 142c29 41 57 63 86 63c36 0 71 -37 71 -72c0 -28 -15 -52 -36 -82l-131 -182l173 -244c23 -33 37 -55 37 -82c0 -36 -34 -70 -74 -70c-33 0 -59 20 -88 61l-144 202l-143 -201c-28 -40 -54 -62 -85 -62c-39 0 -73 36 -73 71
c0 29 15 52 36 82l173 241l-130 182c-21 29 -36 54 -36 80c0 40 32 76 79 76z" />
    <glyph glyph-name="afii10040" unicode="&#x426;" horiz-adv-x="813" 
d="M225 150h298v458c0 80 27 115 81 115c57 0 81 -38 81 -115v-458c81 0 110 -26 110 -123v-116c0 -78 -25 -115 -78 -115c-52 0 -79 36 -79 115v89h-494c-55 0 -81 39 -81 115v493c0 80 27 115 81 115c57 0 81 -38 81 -115v-458z" />
    <glyph glyph-name="afii10041" unicode="&#x427;" horiz-adv-x="696" 
d="M131 723c53 0 81 -35 81 -115v-112c0 -98 42 -121 105 -121c62 0 107 21 154 62v171c0 77 25 115 81 115c53 0 81 -35 81 -115v-502c0 -76 -24 -115 -81 -115c-54 0 -81 36 -81 115v181c-34 -20 -104 -47 -163 -47c-131 0 -258 41 -258 244v124c0 77 25 115 81 115z" />
    <glyph glyph-name="afii10042" unicode="&#x428;" horiz-adv-x="1042" 
d="M225 150h215v458c0 80 27 115 81 115c57 0 81 -38 81 -115v-458h215v458c0 80 27 115 81 115c57 0 81 -38 81 -115v-493c0 -76 -25 -115 -81 -115h-754c-56 0 -81 39 -81 115v493c0 80 27 115 81 115c57 0 81 -38 81 -115v-458z" />
    <glyph glyph-name="afii10043" unicode="&#x429;" horiz-adv-x="1107" 
d="M225 150h215v458c0 80 27 115 81 115c57 0 81 -38 81 -115v-458h215v458c0 80 27 115 81 115c57 0 81 -38 81 -115v-458c81 0 110 -26 110 -123v-116c0 -78 -25 -115 -78 -115c-52 0 -79 36 -79 115v89h-788c-56 0 -81 39 -81 115v493c0 80 27 115 81 115
c57 0 81 -38 81 -115v-458z" />
    <glyph glyph-name="afii10044" unicode="&#x42a;" horiz-adv-x="733" 
d="M121 711h140c52 0 81 -35 81 -115v-140h87c142 0 274 -60 274 -233c0 -118 -94 -223 -253 -223h-160c-84 0 -110 22 -110 102v459h-59c-91 0 -116 22 -116 74c0 50 25 76 116 76zM342 318v-180h81c70 0 110 30 110 91c0 64 -35 89 -113 89h-78z" />
    <glyph glyph-name="afii10045" unicode="&#x42b;" horiz-adv-x="868" 
d="M724 723c55 0 81 -38 81 -115v-502c0 -77 -26 -115 -81 -115s-81 38 -81 115v502c0 77 26 115 81 115zM144 723c53 0 81 -27 81 -115v-152h87c142 0 274 -60 274 -233c0 -118 -94 -223 -253 -223h-160c-84 0 -110 22 -110 102v506c0 77 25 115 81 115zM225 318v-180h81
c70 0 110 30 110 91c0 64 -35 89 -113 89h-78z" />
    <glyph glyph-name="afii10046" unicode="&#x42c;" horiz-adv-x="616" 
d="M144 723c53 0 81 -27 81 -115v-152h87c142 0 274 -60 274 -233c0 -118 -94 -223 -253 -223h-160c-84 0 -110 22 -110 102v506c0 77 25 115 81 115zM225 318v-180h81c70 0 110 30 110 91c0 64 -35 89 -113 89h-78z" />
    <glyph glyph-name="afii10047" unicode="&#x42d;" horiz-adv-x="632" 
d="M252 732c204 0 350 -157 350 -377c0 -226 -140 -376 -348 -376c-128 0 -224 47 -224 123c0 39 34 71 73 71c54 0 93 -39 143 -39c91 0 155 60 173 152h-175c-78 0 -114 25 -114 74c0 53 39 76 114 76h172c-11 84 -84 141 -165 141c-92 0 -84 -27 -142 -27
c-37 0 -70 28 -70 67c0 76 123 115 213 115z" />
    <glyph glyph-name="afii10048" unicode="&#x42e;" horiz-adv-x="1080" 
d="M225 437h134c30 180 161 295 342 295c207 0 349 -150 349 -377c0 -224 -139 -376 -349 -376c-188 0 -319 121 -344 308h-132v-181c0 -77 -26 -115 -81 -115s-81 38 -81 115v502c0 77 26 115 81 115s81 -38 81 -115v-171zM701 577c-103 0 -173 -83 -173 -224
c0 -135 71 -219 173 -219s173 84 173 219c0 141 -70 224 -173 224z" />
    <glyph glyph-name="afii10049" unicode="&#x42f;" horiz-adv-x="621" 
d="M306 711h140c84 0 112 -28 112 -114v-491c0 -79 -27 -115 -81 -115c-56 0 -81 39 -81 115v165l-199 -227c-35 -40 -67 -53 -98 -53c-37 0 -69 32 -69 71c0 24 15 57 52 93l136 130c-120 36 -170 103 -170 214c0 119 79 212 258 212zM396 379v183h-77
c-64 0 -101 -24 -101 -85c0 -62 29 -98 103 -98h75z" />
    <glyph glyph-name="afii10065" unicode="&#x430;" horiz-adv-x="603" 
d="M289 402c-57 0 -102 -56 -102 -134c0 -80 44 -137 102 -137s103 59 103 137c0 77 -46 134 -103 134zM396 48c-32 -39 -78 -61 -132 -61c-129 0 -239 114 -239 279c0 160 111 280 245 280c54 0 94 -19 126 -57c18 32 43 50 75 50c54 0 78 -37 78 -114v-317
c0 -77 -25 -115 -78 -115c-35 0 -58 17 -75 55z" />
    <glyph glyph-name="afii10066" unicode="&#x431;" horiz-adv-x="612" 
d="M587 266c0 -163 -109 -279 -266 -279c-153 0 -267 98 -267 279v97c0 147 18 288 141 374c103 72 206 74 278 110c17 9 34 13 49 13c36 0 65 -33 65 -68c0 -26 -13 -53 -44 -74c-56 -36 -134 -51 -222 -76c-89 -25 -167 -56 -167 -195c41 53 97 99 187 99
c132 0 246 -88 246 -280zM321 402c-60 0 -105 -39 -105 -134c0 -79 42 -137 105 -137c61 0 104 55 104 137c0 71 -33 134 -104 134z" />
    <glyph glyph-name="afii10067" unicode="&#x432;" horiz-adv-x="572" 
d="M410 291c49 -8 132 -46 132 -132c0 -106 -93 -159 -195 -159h-212c-54 0 -81 33 -81 113v311c0 77 37 115 95 115h205c100 0 161 -41 161 -125c0 -63 -56 -108 -105 -123zM211 420v-93h91c40 0 63 23 63 49c0 19 -9 44 -58 44h-96zM211 233v-107h98c51 0 78 21 78 58
c0 34 -36 49 -78 49h-98z" />
    <glyph glyph-name="afii10068" unicode="&#x433;" horiz-adv-x="432" 
d="M152 532h156c69 0 99 -25 99 -70c0 -44 -32 -65 -99 -65h-97v-289c0 -78 -24 -115 -78 -115c-52 0 -79 35 -79 115v286c0 95 31 138 98 138z" />
    <glyph glyph-name="afii10069" unicode="&#x434;" horiz-adv-x="635" 
d="M195 532h268c52 0 84 -24 84 -115v-282c61 0 76 -33 76 -100v-102c0 -78 -19 -115 -75 -115c-58 0 -75 36 -75 115v67h-318v-67c0 -79 -21 -115 -76 -115c-53 0 -74 37 -74 115v102c0 65 9 100 76 100c21 32 31 65 31 104v178c0 96 31 115 83 115zM390 397h-133v-182
c0 -23 -15 -72 -26 -80h159v262z" />
    <glyph glyph-name="afii10070" unicode="&#x435;" horiz-adv-x="572" 
d="M187 223c7 -59 51 -98 119 -98c79 0 130 51 166 51c38 0 63 -25 63 -61c0 -62 -100 -128 -237 -128c-155 0 -273 118 -273 279s114 280 265 280s257 -118 257 -259c0 -54 -25 -64 -78 -64h-282zM186 325h208c-4 55 -50 93 -103 93s-94 -35 -105 -93z" />
    <glyph glyph-name="afii10072" unicode="&#x436;" horiz-adv-x="795" 
d="M396 539c54 0 80 -37 80 -114v-67l134 139c28 29 55 42 82 42c38 0 65 -27 65 -60c0 -25 -15 -53 -40 -76l-106 -98l147 -173c21 -25 31 -48 31 -76c0 -36 -32 -63 -74 -63c-30 0 -57 14 -82 47l-157 210v-142c0 -77 -25 -115 -80 -115c-53 0 -77 37 -77 114v142
l-157 -210c-25 -33 -52 -46 -82 -46c-42 0 -74 26 -74 62c0 28 10 51 31 76l147 173l-106 98c-25 23 -40 51 -40 76c0 33 29 61 66 61c28 0 53 -14 81 -43l134 -139v67c0 77 24 115 77 115z" />
    <glyph glyph-name="afii10073" unicode="&#x437;" horiz-adv-x="533" 
d="M278 546c125 0 208 -46 208 -138c0 -59 -43 -98 -92 -121c67 -15 109 -69 109 -121c0 -108 -104 -179 -251 -179c-124 0 -227 64 -227 133c0 36 25 62 59 62c78 0 53 -72 175 -72c46 0 87 25 87 70c0 33 -25 49 -71 49h-35c-43 0 -57 16 -57 51c0 38 27 47 57 47h27
c42 0 62 21 62 50c0 33 -27 46 -70 46c-80 0 -112 -50 -147 -50c-34 0 -65 32 -65 62c0 66 114 111 231 111z" />
    <glyph glyph-name="afii10074" unicode="&#x438;" horiz-adv-x="583" 
d="M132 539c51 0 79 -35 79 -115v-172l161 241c24 36 51 46 78 46c50 0 79 -35 79 -115v-316c0 -75 -27 -115 -79 -115s-78 35 -78 115v166l-182 -253c-14 -20 -32 -28 -58 -28c-51 0 -78 35 -78 115v316c0 77 24 115 78 115z" />
    <glyph glyph-name="afii10075" unicode="&#x439;" horiz-adv-x="583" 
d="M132 539c51 0 79 -35 79 -115v-172l161 241c24 36 51 46 78 46c50 0 79 -35 79 -115v-316c0 -75 -27 -115 -79 -115s-78 35 -78 115v166l-182 -253c-14 -20 -32 -28 -58 -28c-51 0 -78 35 -78 115v316c0 77 24 115 78 115zM298 561c-68 0 -140 48 -140 104
c0 27 16 46 45 46c45 0 52 -55 93 -55s47 55 98 55c27 0 44 -17 44 -46c0 -57 -71 -104 -140 -104z" />
    <glyph glyph-name="afii10076" unicode="&#x43a;" horiz-adv-x="525" 
d="M133 539c53 0 78 -38 78 -115v-66l135 139c29 30 53 42 81 42c37 0 66 -27 66 -60c0 -25 -16 -54 -40 -76l-106 -98l147 -173c21 -25 31 -48 31 -76c0 -36 -32 -63 -74 -63c-30 0 -57 14 -82 47l-158 210v-142c0 -77 -24 -115 -78 -115s-79 38 -79 115v316
c0 77 25 115 79 115z" />
    <glyph glyph-name="afii10077" unicode="&#x43b;" horiz-adv-x="559" 
d="M348 397h-133v-182c0 -108 -49 -228 -133 -228c-39 0 -64 31 -64 66c0 48 52 81 52 150v214c0 77 32 115 83 115h268c53 0 84 -35 84 -115v-309c0 -75 -25 -115 -79 -115c-52 0 -78 35 -78 115v289z" />
    <glyph glyph-name="afii10078" unicode="&#x43c;" horiz-adv-x="809" 
d="M161 539c27 0 55 -12 81 -57l167 -287l165 298c19 35 47 46 74 46c51 0 84 -18 91 -115l21 -278c2 -23 4 -52 4 -59c0 -62 -23 -94 -70 -94c-52 0 -80 36 -86 115l-13 163l-116 -216c-18 -34 -49 -62 -75 -62s-56 32 -75 67l-114 211l-14 -163c-7 -81 -34 -115 -86 -115
c-47 0 -70 32 -70 93c0 7 2 32 4 59l22 279c7 90 39 115 90 115z" />
    <glyph glyph-name="afii10079" unicode="&#x43d;" horiz-adv-x="585" 
d="M211 342h163v82c0 77 26 115 80 115c51 0 77 -35 77 -115v-316c0 -75 -25 -115 -79 -115c-52 0 -78 35 -78 115v108h-163v-107c0 -75 -25 -116 -79 -116c-51 0 -78 35 -78 115v316c0 77 26 115 83 115c58 0 74 -41 74 -114v-83z" />
    <glyph glyph-name="afii10080" unicode="&#x43e;" horiz-adv-x="583" 
d="M292 546c156 0 266 -116 266 -280s-110 -279 -266 -279c-155 0 -267 115 -267 279s112 280 267 280zM292 402c-58 0 -105 -53 -105 -135c0 -83 45 -136 105 -136s104 55 104 137c0 80 -46 134 -104 134z" />
    <glyph glyph-name="afii10081" unicode="&#x43f;" horiz-adv-x="585" 
d="M531 108c0 -75 -25 -115 -78 -115c-52 0 -79 35 -79 115v289h-163v-289c0 -75 -23 -115 -77 -115c-51 0 -80 35 -80 115v309c0 90 29 115 80 115h319c48 0 78 -19 78 -115v-309z" />
    <glyph glyph-name="afii10082" unicode="&#x440;" horiz-adv-x="603" 
d="M208 493c32 35 76 53 130 53c132 0 240 -114 240 -276c0 -159 -110 -283 -242 -283c-48 0 -89 16 -125 47v-135c0 -77 -24 -115 -78 -115s-79 38 -79 115v530c0 77 25 110 79 110c31 0 56 -12 75 -46zM313 402c-58 0 -102 -53 -102 -135c0 -83 42 -136 102 -136
s103 55 103 137c0 80 -45 134 -103 134z" />
    <glyph glyph-name="afii10083" unicode="&#x441;" horiz-adv-x="497" 
d="M296 546c106 0 176 -42 176 -101c0 -38 -27 -67 -65 -67c-29 0 -66 24 -111 24c-64 0 -109 -56 -109 -137c0 -82 43 -134 115 -134c46 0 82 24 108 24c36 0 61 -31 61 -68c0 -55 -75 -100 -185 -100c-154 0 -261 112 -261 279c0 163 106 280 271 280z" />
    <glyph glyph-name="afii10084" unicode="&#x442;" 
d="M99 532h296c68 0 95 -18 95 -67c0 -44 -27 -68 -96 -68h-66v-289c0 -78 -23 -115 -77 -115c-52 0 -80 35 -80 115v289h-70c-69 0 -91 24 -91 68c0 49 26 67 89 67z" />
    <glyph glyph-name="afii10085" unicode="&#x443;" 
d="M82 539c44 0 62 -27 80 -76l89 -238l97 251c17 43 37 63 69 63c48 0 78 -29 78 -75c0 -14 -4 -34 -13 -55l-240 -570c-17 -41 -34 -64 -69 -64c-49 0 -78 30 -78 76c0 17 4 34 13 54l65 141l-159 371c-7 15 -9 31 -9 44c0 44 34 78 77 78z" />
    <glyph glyph-name="afii10086" unicode="&#x444;" horiz-adv-x="939" 
d="M469 764c52 0 79 -29 79 -115v-157c29 32 73 54 126 54c134 0 240 -121 240 -280c0 -156 -106 -279 -242 -279c-46 0 -86 10 -124 42v-134c0 -77 -23 -115 -79 -115c-52 0 -78 34 -78 115v134c-39 -32 -79 -42 -125 -42c-135 0 -241 125 -241 281c0 160 106 278 241 278
c53 0 96 -22 125 -54v157c0 83 23 115 78 115zM649 402c-60 0 -101 -60 -101 -138s38 -133 101 -133c61 0 103 51 103 133c0 76 -42 138 -103 138zM290 402c-61 0 -103 -60 -103 -137c0 -84 41 -134 102 -134c64 0 102 55 102 133s-40 138 -101 138z" />
    <glyph glyph-name="afii10087" unicode="&#x445;" horiz-adv-x="513" 
d="M98 539c24 0 45 -10 65 -33l96 -111l88 108c19 23 44 36 64 36c44 0 81 -35 81 -77c0 -20 -12 -43 -35 -68l-104 -111l123 -139c20 -22 37 -42 37 -78c0 -39 -32 -73 -72 -73c-29 0 -49 14 -72 41l-113 134l-112 -134c-23 -27 -42 -41 -68 -41c-40 0 -76 34 -76 78
c0 31 13 47 33 69l131 144l-110 112c-19 20 -30 43 -30 64c0 41 34 79 74 79z" />
    <glyph glyph-name="afii10088" unicode="&#x446;" horiz-adv-x="622" 
d="M211 135h162v289c0 80 27 115 79 115c53 0 78 -43 78 -119v-285c45 0 77 -20 77 -100v-102c0 -78 -19 -119 -72 -119c-57 0 -78 36 -78 115v71h-324c-54 0 -79 38 -79 115v309c0 80 28 115 79 115c54 0 78 -39 78 -115v-289z" />
    <glyph glyph-name="afii10089" unicode="&#x447;" horiz-adv-x="561" 
d="M110 539c51 0 77 -40 77 -115v-53c0 -61 31 -83 75 -83c48 0 88 25 88 66v70c0 77 24 115 78 115c51 0 79 -35 79 -115v-316c0 -84 -27 -115 -79 -115s-78 33 -78 115v91s-44 -26 -120 -26c-105 0 -200 52 -200 184v67c0 80 26 115 80 115z" />
    <glyph glyph-name="afii10090" unicode="&#x448;" horiz-adv-x="899" 
d="M211 135h160v289c0 80 26 115 78 115c53 0 79 -39 79 -115v-289h160v289c0 80 26 115 78 115c54 0 79 -39 79 -115v-309c0 -80 -28 -115 -76 -115h-638c-51 0 -77 38 -77 115v308c0 80 26 116 77 116c54 0 80 -39 80 -115v-289z" />
    <glyph glyph-name="afii10091" unicode="&#x449;" horiz-adv-x="937" 
d="M211 135h160v289c0 80 26 115 78 115c53 0 79 -39 79 -115v-289h160v289c0 80 26 115 78 115c54 0 79 -39 79 -115v-289c45 0 77 -20 77 -100v-102c0 -78 -19 -119 -72 -119c-57 0 -78 36 -78 115v71h-641c-51 0 -77 38 -77 115v308c0 80 26 116 77 116
c54 0 80 -39 80 -115v-289z" />
    <glyph glyph-name="afii10092" unicode="&#x44a;" horiz-adv-x="663" 
d="M100 532h139c51 0 78 -35 78 -115v-56h84c179 0 237 -73 237 -170c0 -111 -91 -191 -236 -191h-163c-49 0 -79 33 -79 113v284h-67c-54 0 -88 22 -88 65s27 70 95 70zM317 249v-123h87c55 0 77 27 77 64c0 45 -31 59 -77 59h-87z" />
    <glyph glyph-name="afii10093" unicode="&#x44b;" horiz-adv-x="796" 
d="M664 539c53 0 78 -37 78 -114v-317c0 -77 -24 -115 -78 -115s-79 38 -79 115v317c0 77 25 114 79 114zM133 539c51 0 78 -35 78 -115v-63h84c179 0 237 -73 237 -170c0 -111 -91 -191 -236 -191h-163c-49 0 -79 33 -79 113v311c0 77 25 115 79 115zM211 249v-123h87
c55 0 77 27 77 64c0 45 -31 59 -77 59h-87z" />
    <glyph glyph-name="afii10094" unicode="&#x44c;" horiz-adv-x="557" 
d="M133 539c51 0 78 -35 78 -115v-63h84c179 0 237 -73 237 -170c0 -111 -91 -191 -236 -191h-163c-49 0 -79 33 -79 113v311c0 77 25 115 79 115zM211 249v-123h87c55 0 77 27 77 64c0 45 -31 59 -77 59h-87z" />
    <glyph glyph-name="afii10095" unicode="&#x44d;" horiz-adv-x="503" 
d="M207 546c162 0 271 -114 271 -280c0 -152 -108 -279 -262 -279c-106 0 -185 48 -185 105c0 40 19 59 59 59c47 0 58 -29 109 -29s99 37 117 94h-103c-54 0 -89 15 -89 58c0 48 41 68 101 68h91c-20 50 -61 69 -107 69c-66 0 -73 -27 -112 -27s-67 25 -67 63
c0 68 95 99 177 99z" />
    <glyph glyph-name="afii10096" unicode="&#x44e;" horiz-adv-x="835" 
d="M211 332h73c22 128 129 214 260 214c155 0 266 -114 266 -280c0 -163 -109 -279 -266 -279c-129 0 -238 71 -260 219h-73v-98c0 -75 -25 -115 -79 -115c-51 0 -78 35 -78 115v316c0 77 26 115 83 115s74 -42 74 -115v-92zM544 402c-63 0 -104 -54 -104 -134
c0 -79 39 -137 103 -137c61 0 105 55 105 137c0 84 -43 134 -104 134z" />
    <glyph glyph-name="afii10097" unicode="&#x44f;" horiz-adv-x="572" 
d="M518 93c0 -65 -27 -100 -80 -100c-54 0 -77 50 -77 100v114h-54l-140 -173c-24 -29 -51 -41 -75 -41c-33 0 -62 30 -62 67c0 31 21 61 50 91l87 88c-75 20 -120 66 -120 153c0 89 75 147 177 147h200c73 0 94 -41 94 -115v-331zM361 305v119h-85c-60 0 -72 -30 -72 -58
c0 -26 12 -61 72 -61h85z" />
    <glyph glyph-name="afii10071" unicode="&#x451;" horiz-adv-x="572" 
d="M187 223c7 -59 51 -98 119 -98c79 0 130 51 166 51c38 0 63 -25 63 -61c0 -62 -100 -128 -237 -128c-155 0 -273 118 -273 279s114 280 265 280s257 -118 257 -259c0 -54 -25 -64 -78 -64h-282zM186 325h208c-4 55 -50 93 -103 93s-94 -35 -105 -93zM176 773
c40 0 73 -33 73 -73s-33 -72 -73 -72s-72 32 -72 72s32 73 72 73zM392 773c40 0 73 -33 73 -73s-33 -72 -73 -72s-72 32 -72 72s32 73 72 73z" />
    <glyph glyph-name="afii10099" unicode="&#x452;" horiz-adv-x="592" 
d="M133 763c53 0 78 -38 78 -115v-7h164c61 0 91 -19 91 -60c0 -39 -31 -60 -85 -60h-170v-115h1c34 36 80 46 134 46c123 0 192 -67 192 -204v-197c0 -277 -87 -351 -255 -351c-72 0 -155 26 -155 97c0 31 20 65 62 65c47 0 70 -27 113 -27c60 0 78 80 78 208v156
c0 83 -20 118 -84 118c-60 0 -86 -36 -86 -115v-93c0 -77 -24 -116 -78 -116s-79 38 -79 115v413h-6c-54 0 -85 21 -85 60c0 41 30 60 91 60v7c0 77 25 115 79 115z" />
    <glyph glyph-name="afii10100" unicode="&#x453;" horiz-adv-x="432" 
d="M152 532h156c69 0 99 -25 99 -70c0 -44 -32 -65 -99 -65h-97v-289c0 -78 -24 -115 -78 -115c-52 0 -79 35 -79 115v286c0 95 31 138 98 138zM301 802c34 0 61 -25 61 -59c0 -20 -11 -38 -25 -54l-74 -81c-18 -20 -34 -31 -52 -31c-32 0 -53 21 -53 54c0 15 7 29 17 42
l70 97c14 20 32 32 56 32z" />
    <glyph glyph-name="afii10101" unicode="&#x454;" horiz-adv-x="503" 
d="M296 546c82 0 177 -31 177 -99c0 -38 -28 -63 -67 -63s-46 27 -112 27c-46 0 -87 -19 -107 -69h110c60 0 101 -20 101 -68c0 -43 -35 -58 -89 -58h-122c18 -57 66 -94 117 -94s62 29 109 29c40 0 59 -19 59 -59c0 -57 -79 -105 -185 -105c-154 0 -262 127 -262 279
c0 166 109 280 271 280z" />
    <glyph glyph-name="afii10102" unicode="&#x455;" horiz-adv-x="456" 
d="M236 546c110 0 186 -52 186 -107c0 -37 -29 -66 -65 -66c-38 0 -84 38 -127 38c-23 0 -36 -12 -36 -27c0 -30 42 -37 108 -66c87 -39 129 -81 129 -153c0 -100 -85 -178 -211 -178c-117 0 -195 48 -195 112c0 40 27 69 60 69c57 0 91 -46 147 -46c27 0 44 20 44 37
c0 19 -25 35 -87 58c-104 38 -150 96 -150 161c0 94 80 168 197 168z" />
    <glyph glyph-name="afii10103" unicode="&#x456;" horiz-adv-x="275" 
d="M138 539c53 0 78 -37 78 -114v-317c0 -77 -24 -115 -78 -115s-79 38 -79 115v317c0 77 25 114 79 114zM138 764c50 0 90 -40 90 -90c0 -51 -40 -91 -90 -91c-51 0 -91 40 -91 91c0 50 41 90 91 90z" />
    <glyph glyph-name="afii10104" unicode="&#x457;" horiz-adv-x="275" 
d="M138 539c53 0 78 -37 78 -114v-317c0 -77 -24 -115 -78 -115s-79 38 -79 115v317c0 77 25 114 79 114zM28 782c40 0 73 -33 73 -73s-33 -72 -73 -72s-72 32 -72 72s32 73 72 73zM246 782c40 0 73 -33 73 -73s-33 -72 -73 -72s-72 32 -72 72s32 73 72 73z" />
    <glyph glyph-name="afii10105" unicode="&#x458;" horiz-adv-x="275" 
d="M138 539c53 0 78 -37 78 -114v-530c0 -77 -24 -115 -78 -115s-79 38 -79 115v530c0 77 25 114 79 114zM47 674c0 50 41 90 91 90s90 -40 90 -90c0 -51 -40 -91 -90 -91c-51 0 -91 40 -91 91z" />
    <glyph glyph-name="afii10106" unicode="&#x459;" horiz-adv-x="835" 
d="M348 397h-133v-182c0 -108 -49 -228 -133 -228c-39 0 -64 31 -64 66c0 48 52 81 52 150v214c0 77 32 115 83 115h268c53 0 84 -35 84 -115v-56h68c179 0 237 -73 237 -170c0 -111 -91 -191 -236 -191h-147c-49 0 -79 33 -79 113v284zM505 249v-123h71c55 0 77 27 77 64
c0 45 -31 59 -77 59h-71z" />
    <glyph glyph-name="afii10107" unicode="&#x45a;" horiz-adv-x="861" 
d="M211 361h163v63c0 77 26 115 80 115c51 0 77 -35 77 -115v-63h68c179 0 237 -73 237 -170c0 -111 -91 -191 -236 -191h-147c-49 0 -79 33 -79 113v136h-163v-140c0 -75 -25 -116 -79 -116c-51 0 -78 35 -78 115v316c0 77 26 115 83 115c58 0 74 -41 74 -114v-64zM531 249
v-123h71c55 0 77 27 77 64c0 45 -31 59 -77 59h-71z" />
    <glyph glyph-name="afii10108" unicode="&#x45b;" horiz-adv-x="592" 
d="M133 763c53 0 78 -38 78 -115v-7h164c61 0 91 -19 91 -60c0 -39 -31 -60 -85 -60h-170v-115h1c34 36 80 46 134 46c123 0 192 -67 192 -204v-139c0 -77 -24 -116 -78 -116s-79 38 -79 115v91c0 83 -20 118 -84 118c-60 0 -86 -36 -86 -115v-93c0 -77 -24 -116 -78 -116
s-79 38 -79 115v413h-6c-54 0 -85 21 -85 60c0 41 30 60 91 60v7c0 77 25 115 79 115z" />
    <glyph glyph-name="afii10109" unicode="&#x45c;" horiz-adv-x="525" 
d="M133 539c53 0 78 -38 78 -115v-66l135 139c29 30 53 42 81 42c37 0 66 -27 66 -60c0 -25 -16 -54 -40 -76l-106 -98l147 -173c21 -25 31 -48 31 -76c0 -36 -32 -63 -74 -63c-30 0 -57 14 -82 47l-158 210v-142c0 -77 -24 -115 -78 -115s-79 38 -79 115v316
c0 77 25 115 79 115zM370 802c34 0 61 -25 61 -59c0 -20 -11 -38 -25 -54l-74 -81c-18 -20 -34 -31 -52 -31c-32 0 -53 21 -53 54c0 15 7 29 17 42l70 97c14 20 32 32 56 32z" />
    <glyph glyph-name="afii10110" unicode="&#x45e;" 
d="M82 539c44 0 62 -27 80 -76l89 -238l97 251c17 43 37 63 69 63c48 0 78 -29 78 -75c0 -14 -4 -34 -13 -55l-240 -570c-17 -41 -34 -64 -69 -64c-49 0 -78 30 -78 76c0 17 4 34 13 54l65 141l-159 371c-7 15 -9 31 -9 44c0 44 34 78 77 78zM261 561
c-68 0 -140 48 -140 104c0 27 16 46 45 46c45 0 52 -55 93 -55s47 55 98 55c27 0 44 -17 44 -46c0 -57 -71 -104 -140 -104z" />
    <glyph glyph-name="afii10193" unicode="&#x45f;" horiz-adv-x="585" 
d="M211 135h164v289c0 77 26 115 80 115c51 0 77 -35 77 -115v-311c0 -80 -27 -113 -81 -113h-83v-67c0 -78 -19 -115 -75 -115c-58 0 -75 36 -75 115v67h-83c-54 0 -81 33 -81 113v311c0 77 26 115 83 115c58 0 74 -41 74 -114v-290z" />
    <glyph glyph-name="afii10050" unicode="&#x490;" horiz-adv-x="490" 
d="M175 711h157v59c0 79 13 108 68 108c52 0 72 -38 72 -108v-105c0 -67 -21 -104 -82 -104h-165v-455c0 -77 -26 -115 -81 -115s-81 38 -81 115v491c0 79 22 114 112 114z" />
    <glyph glyph-name="afii10098" unicode="&#x491;" horiz-adv-x="432" 
d="M152 532h125v54c0 71 20 104 65 104s65 -33 65 -104v-80c0 -67 -12 -109 -73 -109h-123v-289c0 -78 -24 -115 -78 -115c-52 0 -79 35 -79 115v286c0 95 31 138 98 138z" />
    <glyph glyph-name="uni2010" unicode="&#x2010;" horiz-adv-x="428" 
d="M113 346h203c50 0 78 -27 78 -69c0 -44 -27 -66 -79 -66h-203c-50 0 -78 24 -78 67s28 68 79 68z" />
    <glyph glyph-name="uni2011" unicode="&#x2011;" horiz-adv-x="428" 
d="M113 346h203c50 0 78 -27 78 -69c0 -44 -27 -66 -79 -66h-203c-50 0 -78 24 -78 67s28 68 79 68z" />
    <glyph glyph-name="figuredash" unicode="&#x2012;" horiz-adv-x="540" 
d="M91 416h359c37 0 70 -16 70 -51s-29 -51 -71 -51h-358c-37 0 -71 15 -71 51c0 35 32 51 71 51z" />
    <glyph glyph-name="endash" unicode="&#x2013;" horiz-adv-x="540" 
d="M91 329h359c37 0 70 -16 70 -51s-29 -51 -71 -51h-358c-37 0 -71 15 -71 51c0 35 32 51 71 51z" />
    <glyph glyph-name="emdash" unicode="&#x2014;" horiz-adv-x="1020" 
d="M81 329h859c37 0 70 -16 70 -51s-29 -51 -71 -51h-858c-37 0 -71 15 -71 51c0 35 32 51 71 51z" />
    <glyph glyph-name="afii00208" unicode="&#x2015;" horiz-adv-x="1020" 
d="M81 329h859c37 0 70 -16 70 -51s-29 -51 -71 -51h-858c-37 0 -71 15 -71 51c0 35 32 51 71 51z" />
    <glyph glyph-name="quoteleft" unicode="&#x2018;" horiz-adv-x="250" 
d="M180 807c36 0 66 -26 66 -62c0 -15 -6 -32 -16 -51l-79 -144c-20 -37 -44 -55 -70 -55c-35 0 -66 27 -66 63c0 14 5 31 16 50l79 144c20 37 41 55 70 55z" />
    <glyph glyph-name="quoteright" unicode="&#x2019;" horiz-adv-x="250" 
d="M180 807c36 0 66 -26 66 -62c0 -15 -6 -32 -16 -51l-79 -144c-20 -37 -44 -55 -70 -55c-35 0 -66 27 -66 63c0 14 5 31 16 50l79 144c20 37 41 55 70 55z" />
    <glyph glyph-name="quotesinglbase" unicode="&#x201a;" horiz-adv-x="252" 
d="M151 162c36 0 66 -26 66 -62c0 -15 -6 -32 -16 -51l-79 -144c-20 -37 -44 -55 -70 -55c-35 0 -66 27 -66 63c0 14 5 31 16 50l79 144c20 37 41 55 70 55z" />
    <glyph glyph-name="quotedblleft" unicode="&#x201c;" horiz-adv-x="471" 
d="M180 807c36 0 66 -26 66 -62c0 -15 -6 -32 -16 -51l-79 -144c-20 -37 -44 -55 -70 -55c-35 0 -66 27 -66 63c0 14 5 31 16 50l79 144c20 37 41 55 70 55zM401 807c36 0 66 -26 66 -62c0 -15 -6 -32 -16 -51l-79 -144c-20 -37 -44 -55 -70 -55c-35 0 -66 27 -66 63
c0 14 5 31 16 50l79 144c20 37 41 55 70 55z" />
    <glyph glyph-name="quotedblright" unicode="&#x201d;" horiz-adv-x="471" 
d="M180 807c36 0 66 -26 66 -62c0 -15 -6 -32 -16 -51l-79 -144c-20 -37 -44 -55 -70 -55c-35 0 -66 27 -66 63c0 14 5 31 16 50l79 144c20 37 41 55 70 55zM401 807c36 0 66 -26 66 -62c0 -15 -6 -32 -16 -51l-79 -144c-20 -37 -44 -55 -70 -55c-35 0 -66 27 -66 63
c0 14 5 31 16 50l79 144c20 37 41 55 70 55z" />
    <glyph glyph-name="quotedblbase" unicode="&#x201e;" horiz-adv-x="501" 
d="M151 162c36 0 66 -26 66 -62c0 -15 -6 -32 -16 -51l-79 -144c-20 -37 -44 -55 -70 -55c-35 0 -66 27 -66 63c0 14 5 31 16 50l79 144c20 37 41 55 70 55zM400 162c36 0 66 -26 66 -62c0 -15 -6 -32 -16 -51l-79 -144c-20 -37 -44 -55 -70 -55c-35 0 -66 27 -66 63
c0 14 5 31 16 50l79 144c20 37 41 55 70 55z" />
    <glyph glyph-name="dagger" unicode="&#x2020;" horiz-adv-x="537" 
d="M269 731c46 0 67 -33 67 -99v-118h99c52 0 77 -22 77 -57c0 -37 -29 -58 -78 -58h-98v-473c0 -67 -20 -100 -67 -100s-68 34 -68 100v473h-98c-50 0 -78 22 -78 58c0 37 27 57 79 57h97v118c0 67 21 99 68 99z" />
    <glyph glyph-name="daggerdbl" unicode="&#x2021;" 
d="M318 526h85c50 0 78 -21 78 -53c0 -34 -27 -53 -79 -53h-84v-280h85c50 0 78 -21 78 -53c0 -34 -27 -53 -79 -53h-84v-108c0 -67 -21 -100 -68 -100s-68 34 -68 100v108h-85c-50 0 -78 21 -78 53c0 34 27 53 79 53h84v280h-85c-50 0 -78 21 -78 53c0 34 27 53 79 53h84
v106c0 67 21 99 68 99c46 0 68 -33 68 -99v-106z" />
    <glyph glyph-name="bullet" unicode="&#x2022;" horiz-adv-x="465" 
d="M50 372c0 101 82 182 183 182c100 0 182 -81 182 -182c0 -99 -82 -183 -183 -183s-182 82 -182 183z" />
    <glyph glyph-name="ellipsis" unicode="&#x2026;" horiz-adv-x="998" 
d="M166 175c50 0 91 -41 91 -91c0 -51 -41 -91 -91 -91c-51 0 -91 40 -91 91c0 50 41 91 91 91zM499 175c50 0 91 -41 91 -91c0 -51 -41 -91 -91 -91c-51 0 -91 40 -91 91c0 50 41 91 91 91zM832 175c50 0 91 -41 91 -91c0 -51 -41 -91 -91 -91c-51 0 -91 40 -91 91
c0 50 41 91 91 91z" />
    <glyph glyph-name="perthousand" unicode="&#x2030;" horiz-adv-x="1042" 
d="M163 720c84 0 153 -70 153 -159s-69 -159 -153 -159c-85 0 -153 69 -153 159s69 159 153 159zM163 618c-28 0 -51 -27 -51 -57c0 -29 23 -57 51 -57s51 28 51 57c0 30 -23 57 -51 57zM536 309c84 0 153 -70 153 -159s-69 -159 -153 -159c-85 0 -153 69 -153 159
s69 159 153 159zM536 207c-28 0 -51 -27 -51 -57c0 -29 23 -57 51 -57s51 28 51 57c0 30 -23 57 -51 57zM879 309c84 0 153 -70 153 -159s-69 -159 -153 -159c-85 0 -153 69 -153 159s69 159 153 159zM879 207c-28 0 -51 -27 -51 -57c0 -29 23 -57 51 -57s51 28 51 57
c0 30 -23 57 -51 57zM239 40c-22 -38 -44 -57 -70 -57c-32 0 -57 25 -57 58c0 16 5 33 16 52l330 576c21 36 40 56 70 56c32 0 56 -23 56 -56c0 -18 -5 -33 -16 -53z" />
    <glyph glyph-name="guilsinglleft" unicode="&#x2039;" horiz-adv-x="276" 
d="M212 455c28 0 44 -15 44 -36c0 -19 -6 -31 -33 -63l-83 -99l83 -99c27 -32 33 -44 33 -63c0 -21 -16 -36 -44 -36c-22 0 -50 20 -71 46l-126 152l126 152c21 26 49 46 71 46z" />
    <glyph glyph-name="guilsinglright" unicode="&#x203a;" horiz-adv-x="276" 
d="M64 455c22 0 50 -20 71 -46l126 -152l-126 -152c-21 -26 -49 -46 -71 -46c-28 0 -44 15 -44 36c0 19 6 31 33 63l83 99l-83 99c-27 32 -33 44 -33 63c0 21 16 36 44 36z" />
    <glyph glyph-name="afii61352" unicode="&#x2116;" horiz-adv-x="1193" 
d="M138 723c34 0 60 -22 86 -56l299 -395v336c0 77 26 115 81 115s81 -38 81 -115v-520c0 -67 -22 -97 -74 -97c-34 0 -75 31 -112 80l-274 362v-327c0 -77 -26 -115 -81 -115s-81 38 -81 115v505c0 71 23 112 75 112zM959 552c-47 0 -81 -40 -81 -92c0 -50 32 -94 81 -94
c50 0 79 42 79 94c0 50 -32 92 -79 92zM959 657c115 0 199 -83 199 -199c0 -115 -83 -197 -199 -197c-118 0 -201 82 -201 197c0 119 88 199 201 199zM848 194h204c50 0 78 -26 78 -68c0 -43 -27 -67 -79 -67h-203c-50 0 -78 25 -78 68s28 67 78 67z" />
    <glyph glyph-name="trademark" unicode="&#x2122;" horiz-adv-x="833" 
d="M550 552l45 122c12 32 19 40 61 40c36 0 50 -8 50 -50v-189c0 -18 -9 -28 -33 -28c-23 0 -33 11 -33 28v172l-66 -176c-6 -16 -12 -24 -24 -24c-13 0 -17 6 -24 24l-68 176v-172c0 -18 -9 -28 -33 -28c-23 0 -33 11 -33 28v199c0 32 9 40 51 40c36 0 48 -7 61 -42z
M110 714h219c12 0 21 -8 21 -27c0 -20 -10 -28 -21 -28h-73v-180c0 -19 -12 -32 -35 -32c-22 0 -38 11 -38 32v180h-73c-11 0 -21 8 -21 28c0 19 9 27 21 27z" />
    <glyph glyph-name="uni2219" unicode="&#x2219;" horiz-adv-x="324" 
d="M162 446c50 0 91 -42 91 -91c0 -53 -42 -91 -91 -91c-48 0 -91 35 -91 91c0 50 42 91 91 91z" />
    <glyph glyph-name="dotmath" unicode="&#x22c5;" horiz-adv-x="324" 
d="M162 446c50 0 91 -42 91 -91c0 -53 -42 -91 -91 -91c-48 0 -91 35 -91 91c0 50 42 91 91 91z" />
    <glyph glyph-name="uniF6BA" unicode="&#xf6ba;" horiz-adv-x="428" 
d="M113 433h203c50 0 78 -27 78 -69c0 -44 -27 -66 -79 -66h-203c-50 0 -78 24 -78 67s28 68 79 68z" />
    <glyph glyph-name="uniF6BB" unicode="&#xf6bb;" horiz-adv-x="540" 
d="M91 416h359c37 0 70 -16 70 -51s-29 -51 -71 -51h-358c-37 0 -71 15 -71 51c0 35 32 51 71 51z" />
    <glyph glyph-name="uniF6BC" unicode="&#xf6bc;" horiz-adv-x="1020" 
d="M81 416h859c37 0 70 -16 70 -51s-29 -51 -71 -51h-858c-37 0 -71 15 -71 51c0 35 32 51 71 51z" />
    <glyph glyph-name="uniF6DE" unicode="&#xf6de;" horiz-adv-x="765" 
d="M61 329h644c28 0 52 -16 52 -51s-21 -51 -53 -51h-643c-28 0 -54 15 -54 51c0 35 24 51 54 51z" />
    <glyph glyph-name="hyphenminus" horiz-adv-x="428" 
d="M113 346h203c50 0 78 -27 78 -69c0 -44 -27 -66 -79 -66h-203c-50 0 -78 24 -78 67s28 68 79 68z" />
    <glyph glyph-name="Acute" horiz-adv-x="460" 
d="M276 1015c35 0 63 -25 63 -60c0 -21 -11 -39 -26 -56l-76 -84c-18 -20 -35 -31 -54 -31c-32 0 -54 21 -54 55c0 16 7 30 17 44l73 100c14 20 33 32 57 32z" />
    </font>
</defs>
</svg>
